SplineFontDB: 3.0
FontName: Mikhak-Medium
FullName: Mikhak Medium
FamilyName: Mikhak
Weight: Medium
Copyright: 
Version: 1.00
ItalicAngle: 0
UnderlinePosition: 0
UnderlineWidth: 0
Ascent: 1638
Descent: 410
InvalidEm: 0
sfntRevision: 0x00010003
LayerCount: 2
Layer: 0 0 "Back" 1
Layer: 1 0 "Fore" 0
PreferredKerning: 4
XUID: [1021 89 1101065813 17353]
StyleMap: 0x0040
FSType: 0
OS2Version: 4
OS2_WeightWidthSlopeOnly: 0
OS2_UseTypoMetrics: 1
CreationTime: 1497005464
ModificationTime: 1531843223
PfmFamily: 33
TTFWeight: 500
TTFWidth: 5
LineGap: 0
VLineGap: 0
OS2TypoAscent: 600
OS2TypoAOffset: 1
OS2TypoDescent: -550
OS2TypoDOffset: 1
OS2TypoLinegap: 0
OS2WinAscent: -200
OS2WinAOffset: 1
OS2WinDescent: -50
OS2WinDOffset: 1
HheadAscent: -200
HheadAOffset: 1
HheadDescent: 50
HheadDOffset: 1
OS2SubXSize: 1277
OS2SubYSize: 1185
OS2SubXOff: 0
OS2SubYOff: 256
OS2SupXSize: 1277
OS2SupYSize: 1185
OS2SupXOff: 0
OS2SupYOff: 870
OS2StrikeYSize: 91
OS2StrikeYPos: 766
OS2CapHeight: 1400
OS2XHeight: 1012
OS2Vendor: 'AA68'
Lookup: 4 1 0 "'ccmp' Glyph Composition/Decomposition in Arabic lookup 0" { "'ccmp' Glyph Composition/Decomposition in Arabic lookup 0 subtable 0"  } ['ccmp' ('arab' <'FAR ' 'dflt' > ) ]
Lookup: 1 9 0 "Single Substitution 1" { "Single Substitution 1 subtable"  } []
Lookup: 2 9 0 "Multiple Substitution 2" { "Multiple Substitution 2 subtable"  } []
Lookup: 2 9 0 "Multiple Substitution 3" { "Multiple Substitution 3 subtable"  } []
Lookup: 1 9 0 "'fina' Terminal Forms in Arabic lookup 4" { "'fina' Terminal Forms in Arabic lookup 4 subtable"  } ['fina' ('arab' <'FAR ' 'dflt' > ) ]
Lookup: 1 9 0 "'medi' Medial Forms in Arabic lookup 5" { "'medi' Medial Forms in Arabic lookup 5 subtable"  } ['medi' ('arab' <'FAR ' 'dflt' > ) ]
Lookup: 1 9 0 "'init' Initial Forms in Arabic lookup 6" { "'init' Initial Forms in Arabic lookup 6 subtable"  } ['init' ('arab' <'FAR ' 'dflt' > ) ]

StartChar: a
Encoding: 97 97 0
Width: 1229
VWidth: 2426
Flags: HMW
LayerCount: 2
Fore
SplineSet
833 876 m 0
 772 930 688 963 605 963 c 0
 343 963 160 677 160 419 c 0
 160 204 282 45 480 45 c 0
 746 45 902 276 949 519 c 0
 965 604 995 823 1012 955 c 1
 950 464 l 1
 946 414 940 354 940 293 c 0
 940 167 965 45 1069 45 c 1024
EndSplineSet
Colour: ffff
EndChar

StartChar: c
Encoding: 99 99 1
Width: 1031
VWidth: 2426
Flags: HMW
LayerCount: 2
Fore
SplineSet
855 877 m 0
 788 935 708 971 611 971 c 0
 331 971 160 669 160 411 c 0
 160 215 255 45 528 45 c 0
 668 45 775 85 871 143 c 1024
EndSplineSet
Colour: ffff
EndChar

StartChar: e
Encoding: 101 101 2
Width: 1141
VWidth: 2426
Flags: HMW
LayerCount: 2
Fore
SplineSet
160 357 m 0
 377 372 591 439 778 550 c 0
 852 594 949 664 949 775 c 0
 949 897 834 971 713 971 c 0
 427 971 225 693 225 410 c 1
 230 191 400 45 630 45 c 0
 759 45 885 94 981 181 c 1024
EndSplineSet
Colour: ffff
EndChar

StartChar: f
Encoding: 102 102 3
Width: 773
VWidth: 2426
Flags: HMW
LayerCount: 2
Fore
SplineSet
612 1273 m 17
 578 1311 547 1328 519 1328 c 0
 435 1328 376 1184 363 1028 c 0
 332 682 323 348 323 -4 c 1025
160 549 m 17
 213 553 262 553 312 553 c 0
 414 553 511 547 613 535 c 1033
EndSplineSet
Colour: ffff
EndChar

StartChar: g
Encoding: 103 103 4
Width: 1137
VWidth: 2426
Flags: HMW
LayerCount: 2
Fore
SplineSet
774 924 m 0
 723 955 653 971 593 971 c 0
 324 971 169 684 169 420 c 0
 169 212 320 45 516 45 c 0
 925 45 974 558 974 971 c 1
 976 924 977 841 977 764 c 0
 977 248 973 -365 521 -365 c 0
 346 -365 219 -271 160 -171 c 1024
EndSplineSet
Colour: ffff
EndChar

StartChar: o
Encoding: 111 111 5
Width: 1109
VWidth: 2426
Flags: HMW
LayerCount: 2
Fore
SplineSet
567 971 m 0
 812 971 949 768 949 538 c 0
 949 280 770 45 520 45 c 0
 290 45 160 238 160 486 c 0
 160 746 300 971 567 971 c 0
EndSplineSet
Colour: ffff
EndChar

StartChar: s
Encoding: 115 115 6
Width: 980
VWidth: 2426
Flags: HMW
LayerCount: 2
Fore
SplineSet
788 785 m 1
 760 913 633 972 501 972 c 0
 351 972 198 896 187 760 c 1
 187 578 387 527 526 492 c 0
 659 459 820 401 820 239 c 0
 820 101 655 45 488 45 c 0
 348 45 206 102 160 171 c 1024
EndSplineSet
Colour: ffff
EndChar

StartChar: t
Encoding: 116 116 7
Width: 775
VWidth: 2426
Flags: HMW
LayerCount: 2
Fore
SplineSet
615 820 m 1
 543 829 467 833 388 833 c 0
 312 833 235 829 160 820 c 1025
402 1216 m 0
 369 931 343 647 343 355 c 0
 343 181 402 45 576 45 c 0
 588 45 600 44 612 47 c 1024
EndSplineSet
Colour: ffff
EndChar

StartChar: v
Encoding: 118 118 8
Width: 1084
VWidth: 2426
Flags: HMW
LayerCount: 2
Fore
SplineSet
160 971 m 0
 286 703 439 365 502 45 c 1
 670 317 827 637 924 971 c 1024
EndSplineSet
Colour: ffff
EndChar

StartChar: w
Encoding: 119 119 9
Width: 1501
VWidth: 2426
Flags: HMW
LayerCount: 2
Fore
SplineSet
302 954 m 0
 244 851 160 589 160 374 c 0
 160 194 221 45 406 45 c 0
 654 45 779 474 779 681 c 1
 783 433 792 45 1038 45 c 0
 1261 45 1341 266 1341 513 c 0
 1341 675 1305 843 1251 951 c 1024
EndSplineSet
Colour: ffff
EndChar

StartChar: x
Encoding: 120 120 10
Width: 1137
VWidth: 2426
Flags: HMW
LayerCount: 2
Fore
SplineSet
160 0 m 1
 955 971 l 1025
235 957 m 0
 399 626 721 256 977 0 c 1024
EndSplineSet
Colour: ffff
EndChar

StartChar: y
Encoding: 121 121 11
Width: 1093
VWidth: 2426
Flags: HMW
LayerCount: 2
Fore
SplineSet
226 971 m 0
 212 845 205 715 205 589 c 0
 205 313 240 45 531 45 c 0
 886 45 922 577 933 957 c 1
 929 850 926 742 925 635 c 0
 919 149 910 -365 469 -365 c 0
 294 -365 206 -292 160 -199 c 1024
EndSplineSet
Colour: ffff
EndChar

StartChar: z
Encoding: 122 122 12
Width: 1054
VWidth: 2426
Flags: HMW
LayerCount: 2
Fore
SplineSet
160 882 m 0
 244 896 385 914 538 914 c 0
 689 914 822 892 822 813 c 0
 822 789 812 757 778 727 c 0
 544 512 383 328 196 98 c 0
 179 76 171 56 171 37 c 0
 171 6 195 -17 246 -17 c 0
 257 -17 269 -16 282 -13 c 0
 396 5 682 25 894 29 c 1024
EndSplineSet
Colour: ffff
EndChar

StartChar: A
Encoding: 65 65 13
Width: 1416
VWidth: 1823
Flags: HMW
LayerCount: 2
Fore
SplineSet
160 32 m 0
 738 1316 l 1
 1256 0 l 1025
1088 452 m 1
 338 520 l 1025
EndSplineSet
Colour: ffff
EndChar

StartChar: B
Encoding: 66 66 14
Width: 1098
VWidth: 2426
Flags: HMW
LayerCount: 2
Fore
SplineSet
160 1250 m 1
 263 1290 383 1316 493 1316 c 0
 689 1316 857 1234 857 1028 c 0
 857 756 357 732 202 725 c 1
 272 733 377 739 446 739 c 0
 696 739 938 651 938 406 c 0
 938 139 704 45 461 45 c 0
 358 45 252 61 163 89 c 1
 178 288 185 515 185 706 c 0
 185 943 175 1066 160 1250 c 1
EndSplineSet
Colour: ffff
EndChar

StartChar: C
Encoding: 67 67 15
Width: 1271
VWidth: 2426
Flags: HMW
LayerCount: 2
Fore
SplineSet
1076 1278 m 0
 993 1315 904 1332 814 1332 c 0
 435 1332 160 1038 160 662 c 0
 160 291 434 45 810 45 c 0
 914 45 1018 70 1111 119 c 1024
EndSplineSet
Colour: ffff
EndChar

StartChar: D
Encoding: 68 68 16
Width: 1239
VWidth: 2426
Flags: HMW
LayerCount: 2
Fore
SplineSet
177 1295 m 1
 238 1309 303 1316 366 1316 c 0
 793 1316 1079 1131 1079 701 c 0
 1079 316 793 45 412 45 c 0
 326 45 240 61 160 92 c 1
 189 318 205 563 205 811 c 0
 205 1009 197 1102 177 1295 c 1
EndSplineSet
Colour: ffff
EndChar

StartChar: E
Encoding: 69 69 17
Width: 1098
VWidth: 2426
Flags: HMW
LayerCount: 2
Fore
SplineSet
160 735 m 0
 276 749 382 754 500 754 c 0
 622 754 741 747 859 733 c 1024
938 1359 m 0
 804 1328 630 1316 472 1316 c 0
 387 1316 302 1320 218 1325 c 1
 235 1191 242 1105 242 960 c 0
 242 748 227 534 201 348 c 1
 198 329 197 312 197 295 c 0
 197 47 474 45 768 45 c 0
 821 45 872 45 922 46 c 1024
EndSplineSet
Colour: ffff
EndChar

StartChar: F
Encoding: 70 70 18
Width: 1092
VWidth: 2426
Flags: HMW
LayerCount: 2
Fore
SplineSet
160 721 m 0
 269 734 379 741 489 741 c 0
 607 741 726 733 843 719 c 1024
932 1338 m 0
 798 1307 624 1296 466 1296 c 0
 381 1296 296 1299 213 1304 c 1
 242 1063 248 853 248 583 c 0
 248 378 237 178 217 0 c 1024
EndSplineSet
Colour: ffff
EndChar

StartChar: G
Encoding: 71 71 19
Width: 1352
VWidth: 2426
Flags: HMW
LayerCount: 2
Fore
SplineSet
741.02734375 685 m 0
 809.02734375 673 901.02734375 665 990.02734375 665 c 0
 1060.02734375 665 1131.02734375 670 1184.02734375 679 c 1
 1189.02734375 615 1192.02734375 555 1192.02734375 500 c 0
 1192.02734375 200 1064.02734375 45 716.02734375 45 c 0
 405.02734375 45 157.02734375 300 160.02734375 645 c 0
 164.02734375 1015 351.02734375 1316 763.02734375 1316 c 0
 861.02734375 1316 959.02734375 1284 1037.02734375 1226 c 1024
EndSplineSet
Colour: ffff
EndChar

StartChar: H
Encoding: 72 72 20
Width: 1239
VWidth: 2426
Flags: HMW
LayerCount: 2
Fore
SplineSet
967 1316 m 1
 1026 -21 l 1025
1079 654 m 1
 814 666 390 676 160 676 c 1025
232 1316 m 17
 228 873 211 426 168 0 c 1025
EndSplineSet
Colour: ffff
EndChar

StartChar: I
Encoding: 73 73 21
Width: 355
VWidth: 2426
Flags: HMW
LayerCount: 2
Fore
SplineSet
160 0 m 1
 195 1361 l 1025
EndSplineSet
Colour: ffff
EndChar

StartChar: J
Encoding: 74 74 22
Width: 680
VWidth: 2426
Flags: HMW
LayerCount: 2
Fore
SplineSet
173 1317 m 1
 520 1317 l 1
 419 1316 l 1
 464 975 475 696 475 330 c 0
 475 152 417 45 233 45 c 0
 209 45 184 46 160 48 c 1025
EndSplineSet
Colour: ffff
EndChar

StartChar: K
Encoding: 75 75 23
Width: 1177
VWidth: 2426
Flags: HMW
LayerCount: 2
Fore
SplineSet
160 0 m 1
 195 1360 l 1025
946 1361 m 0
 743 1087 441 878 163 720 c 1
 379 452 721 198 1017 7 c 1024
EndSplineSet
Colour: ffff
EndChar

StartChar: L
Encoding: 76 76 24
Width: 1126
VWidth: 2426
Flags: HMW
LayerCount: 2
Fore
SplineSet
178 1316 m 0
 189 1149 194 988 194 830 c 0
 194 566 180 309 160 45 c 1
 966 22 l 1024
EndSplineSet
Colour: ffff
EndChar

StartChar: M
Encoding: 77 77 25
Width: 1539
VWidth: 2426
Flags: HMW
LayerCount: 2
Fore
SplineSet
160 0 m 1
 297 1300 l 1
 362 1063 503 758 608 577 c 0
 663 482 710 429 757 429 c 0
 800 429 844 471 897 561 c 0
 1019 766 1161 1122 1200 1316 c 1
 1218 801 1275 457 1379 12 c 1025
EndSplineSet
Colour: ffff
EndChar

StartChar: N
Encoding: 78 78 26
Width: 1227
VWidth: 2426
Flags: HMW
LayerCount: 2
Fore
SplineSet
160 0 m 0
 180 445 199 863 205 1316 c 1
 522 900 806 447 1052 4 c 1
 1067 1361 l 1025
EndSplineSet
Colour: ffff
EndChar

StartChar: O
Encoding: 79 79 27
Width: 1485
VWidth: 2426
Flags: HMW
LayerCount: 2
Fore
SplineSet
713 45 m 0
 393 45 160 259 160 613 c 0
 160 999 428 1316 799 1316 c 0
 1125 1316 1325 1028 1325 684 c 0
 1325 296 1062 45 713 45 c 0
EndSplineSet
Colour: ffff
EndChar

StartChar: P
Encoding: 80 80 28
Width: 1269
VWidth: 2426
Flags: HMW
LayerCount: 2
Fore
SplineSet
160 1137 m 0
 253 1243 462 1316 636 1316 c 0
 905 1316 1109 1131 1109 862 c 0
 1109 591 826 409 560 409 c 0
 490 409 343 421 277 447 c 1024
356 1101 m 1
 258 0 l 1025
EndSplineSet
Colour: ffff
EndChar

StartChar: Q
Encoding: 81 81 29
Width: 1485
VWidth: 1823
Flags: HMW
LayerCount: 2
Fore
SplineSet
883 439 m 0
 1016 255 1137 115 1308 -35 c 1024
EndSplineSet
Refer: 27 79 N 1 0 0 1 0 0 2
Colour: ffff
EndChar

StartChar: R
Encoding: 82 82 30
Width: 1270
VWidth: 1823
Flags: HMW
LayerCount: 2
Fore
SplineSet
160 1137 m 0
 253 1243 448 1316 622 1316 c 0
 891 1316 1077 1131 1077 862 c 0
 1077 609 839 407 560 407 c 0
 466 407 366 430 270 483 c 1
 1110 0 l 1025
356 1102 m 1
 282 0 l 1025
EndSplineSet
Colour: ffff
EndChar

StartChar: S
Encoding: 83 83 31
Width: 1182
VWidth: 2426
Flags: HMW
LayerCount: 2
Fore
SplineSet
961 1230 m 0
 859 1287 740 1316 619 1316 c 0
 384 1316 165 1177 165 960 c 0
 165 794 372 729 582 666 c 0
 800 600 1022 530 1022 343 c 0
 1022 124 805 45 578 45 c 0
 422 45 261 82 160 138 c 1024
EndSplineSet
Colour: ffff
EndChar

StartChar: T
Encoding: 84 84 32
Width: 1423
VWidth: 2426
Flags: HMW
LayerCount: 2
Fore
SplineSet
708 3 m 0
 702 186 698 368 698 551 c 0
 698 803 704 1047 716 1295 c 1024
160 1316 m 1
 1263 1297 l 1025
EndSplineSet
Colour: ffff
EndChar

StartChar: U
Encoding: 85 85 33
Width: 1230
VWidth: 2426
Flags: HMW
LayerCount: 2
Fore
SplineSet
234 1334 m 0
 192 1141 160 951 160 734 c 0
 160 370 232 45 591 45 c 0
 1040 45 1070 668 1070 1095 c 0
 1070 1184 1066 1274 1062 1361 c 1024
EndSplineSet
Colour: ffff
EndChar

StartChar: V
Encoding: 86 86 34
Width: 1368
VWidth: 2426
Flags: HMW
LayerCount: 2
Fore
SplineSet
160 1316 m 0
 669 45 l 1
 1208 1316 l 1024
EndSplineSet
Colour: ffff
EndChar

StartChar: W
Encoding: 87 87 35
Width: 2006
VWidth: 2426
Flags: HMW
LayerCount: 2
Fore
SplineSet
160 1349 m 0
 553 45 l 1
 1030 1179 l 1
 1415 45 l 1
 1846 1316 l 1024
EndSplineSet
Colour: ffff
EndChar

StartChar: X
Encoding: 88 88 36
Width: 1267
VWidth: 2426
Flags: HMW
LayerCount: 2
Fore
SplineSet
160 0 m 0
 1070 1338 l 1024
203 1277 m 0
 1107 -4 l 1024
EndSplineSet
Colour: ffff
EndChar

StartChar: Y
Encoding: 89 89 37
Width: 1267
VWidth: 2426
Flags: HMW
LayerCount: 2
Fore
SplineSet
160 1287 m 1
 625 633 l 1
 1107 1338 l 1025
636 0 m 1
 625 633 l 1025
EndSplineSet
Colour: ffff
EndChar

StartChar: Z
Encoding: 90 90 38
Width: 1422
VWidth: 2426
Flags: HMW
LayerCount: 2
Fore
SplineSet
160 1240 m 0
 360 1290 538 1316 745 1316 c 0
 878 1316 1100 1301 1100 1211 c 0
 1100 1191 1089 1167 1063 1139 c 0
 726 768 461 466 206 47 c 1
 528 83 851 104 1197 104 c 0
 1218 104 1241 104 1262 104 c 1024
EndSplineSet
Colour: ffff
EndChar

StartChar: zero
Encoding: 48 48 39
Width: 1141
VWidth: 2426
Flags: HMW
LayerCount: 2
Fore
SplineSet
160 516 m 0
 160 845 256 1361 600 1361 c 0
 855 1361 981 1129 981 873 c 0
 981 502 873 45 490 45 c 0
 234 45 160 271 160 516 c 0
EndSplineSet
Colour: ffff
EndChar

StartChar: one
Encoding: 49 49 40
Width: 616
VWidth: 2426
Flags: HMW
LayerCount: 2
Fore
SplineSet
379 0 m 1
 456 1316 l 1
 422 1316 l 1
 345 1244 253 1172 160 1118 c 1025
EndSplineSet
Colour: ffff
EndChar

StartChar: two
Encoding: 50 50 41
Width: 1171
VWidth: 2426
Flags: HMW
LayerCount: 2
Fore
SplineSet
208 874 m 0
 208 1107 366 1316 609 1316 c 0
 824 1316 953 1154 953 991 c 0
 953 777 768 600 537 389 c 2
 160 45 l 1
 315 61 468 67 626 67 c 0
 752 67 881 62 1011 56 c 1024
EndSplineSet
Colour: ffff
EndChar

StartChar: three
Encoding: 51 51 42
Width: 1078
VWidth: 2426
Flags: HMW
LayerCount: 2
Fore
SplineSet
225 1037 m 0
 264 1211 428 1316 581 1316 c 0
 731 1316 870 1216 870 978 c 0
 870 748 593 703 361 671 c 1
 424 682 500 695 575 688 c 0
 763 672 911 616 918 433 c 1
 918 190 721 45 484 45 c 0
 368 45 250 82 160 156 c 1024
EndSplineSet
Colour: ffff
EndChar

StartChar: four
Encoding: 52 52 43
Width: 1268
VWidth: 2426
Flags: HMW
LayerCount: 2
Fore
SplineSet
722 1316 m 0
 575 952 402 717 182 420 c 0
 172 407 160 383 160 359 c 0
 160 313 203 296 243 292 c 0
 285 286 326 284 368 284 c 0
 617 284 874 324 1108 381 c 1024
834 924 m 1
 728 0 l 1025
EndSplineSet
Colour: ffff
EndChar

StartChar: five
Encoding: 53 53 44
Width: 1133
VWidth: 2426
Flags: HMW
LayerCount: 2
Fore
SplineSet
963 1337 m 0
 897 1323 770 1316 637 1316 c 0
 492 1316 340 1324 255 1341 c 1
 219 844 l 1
 312 927 428 966 538 966 c 0
 762 966 973 805 973 510 c 0
 973 197 740 33 496 33 c 0
 378 33 258 72 160 150 c 1024
EndSplineSet
Colour: ffff
EndChar

StartChar: six
Encoding: 54 54 45
Width: 1130
VWidth: 2426
Flags: HMW
LayerCount: 2
Fore
SplineSet
612 1329 m 0
 293 1157 192 804 192 483 c 0
 192 239 305 45 564 45 c 0
 795 45 970 265 970 490 c 0
 970 1019 316 1033 160 484 c 1024
EndSplineSet
Colour: ffff
EndChar

StartChar: eight
Encoding: 56 56 46
Width: 1079
VWidth: 2426
Flags: HMW
LayerCount: 2
Fore
SplineSet
837 1215 m 0
 751 1279 635 1316 512 1316 c 0
 285 1316 160 1173 160 994 c 0
 160 815 337 705 466 654 c 0
 633 588 831 497 831 350 c 0
 831 169 686 45 506 45 c 0
 322 45 188 170 188 354 c 0
 188 660 642 874 919 996 c 1024
EndSplineSet
Colour: ffff
EndChar

StartChar: period
Encoding: 46 46 47
Width: 399
VWidth: 1823
Flags: HMW
LayerCount: 2
Fore
SplineSet
116 97 m 0
 116 140 159 173 208 173 c 0
 257 173 284 141 284 92 c 0
 284 43 252 0 203 0 c 0
 154 0 116 49 116 97 c 0
EndSplineSet
Colour: ff0000
EndChar

StartChar: comma
Encoding: 44 44 49
Width: 478
VWidth: 1823
Flags: HMW
LayerCount: 2
Fore
SplineSet
112 -207 m 1
 342 189 l 1025
EndSplineSet
Colour: ffff
EndChar

StartChar: bracketleft
Encoding: 91 91 51
Width: 562
VWidth: 2426
Flags: HMW
LayerCount: 2
Fore
SplineSet
449 1321 m 0
 399 1317 348 1316 295 1316 c 0
 242 1316 191 1317 138 1321 c 1
 152 1204 158 1088 158 972 c 0
 158 829 150 687 142 549 c 0
 134 418 134 389 134 266 c 0
 134 80 245 54 444 45 c 1024
EndSplineSet
Colour: ffff
EndChar

StartChar: bracketright
Encoding: 93 93 52
Width: 735
VWidth: 2426
Flags: HMW
LayerCount: 2
Fore
SplineSet
100 1343 m 0
 195 1328 303 1318 410 1316 c 1
 374 1151 372 1063 372 875 c 0
 372 777 384 678 399 579 c 0
 414 480 426 381 426 285 c 0
 426 86 289 45 107 45 c 1024
EndSplineSet
Colour: ffff
EndChar

StartChar: braceleft
Encoding: 123 123 53
Width: 564
VWidth: 1839
Flags: HMW
LayerCount: 2
Fore
SplineSet
458 45 m 0
 313 45 258 101 258 215 c 0
 258 237 260 261 264 288 c 0
 269 323 272 367 272 413 c 0
 272 566 243 749 175 749 c 0
 171 749 167 749 163 747 c 1
 172 742 181 739 189 739 c 0
 251 739 267 844 267 983 c 0
 267 1028 267 1103 263 1138 c 0
 261 1155 261 1171 261 1186 c 0
 261 1297 309 1361 455 1361 c 1024
EndSplineSet
Colour: ffff
EndChar

StartChar: grave
Encoding: 96 96 55
Width: 525
VWidth: 2426
Flags: HMW
LayerCount: 2
Fore
SplineSet
181 1482 m 1
 240 1407 314 1271 360 1169 c 1025
EndSplineSet
Colour: ffff
EndChar

StartChar: bar
Encoding: 124 124 56
Width: 356
VWidth: 2426
Flags: HMW
LayerCount: 2
Fore
SplineSet
176 1459 m 0
 176 1040 166 367 159 0 c 1024
EndSplineSet
Colour: ffff
EndChar

StartChar: asciicircum
Encoding: 94 94 57
Width: 703
VWidth: 2426
Flags: HMW
LayerCount: 2
Fore
SplineSet
165 1169 m 0
 331 1438 l 1
 419 1364 479 1282 533 1169 c 1024
EndSplineSet
Colour: ffff
EndChar

StartChar: hyphen
Encoding: 45 45 58
Width: 1037
VWidth: 2426
Flags: HMW
LayerCount: 2
Fore
SplineSet
160 437 m 0
 413 459 632 461 877 461 c 1024
EndSplineSet
Colour: ffff
EndChar

StartChar: plus
Encoding: 43 43 59
Width: 1033
VWidth: 2426
Flags: HMW
LayerCount: 2
Fore
SplineSet
467 1053 m 0
 499 911 516 722 516 566 c 0
 516 450 507 350 487 293 c 1024
160 641 m 0
 317 660 466 667 618 667 c 0
 702 667 787 665 873 661 c 1024
EndSplineSet
Colour: ffff
EndChar

StartChar: exclam
Encoding: 33 33 60
Width: 583
VWidth: 0
Flags: HMW
LayerCount: 2
Fore
SplineSet
250 1361 m 0
 286 1097 295 836 295 547 c 0
 295 508 295 466 294 424 c 1024
333 85 m 0
 333 60 323 45 298 45 c 0
 273 45 250 59 250 84 c 0
 250 109 269 128 294 128 c 0
 319 128 333 110 333 85 c 0
EndSplineSet
Colour: ffff
EndChar

StartChar: quotesingle
Encoding: 39 39 62
Width: 331
VWidth: 2426
Flags: HMW
LayerCount: 2
Fore
SplineSet
160 910 m 0
 167 974 171 1049 171 1126 c 0
 171 1205 167 1287 160 1361 c 1032
EndSplineSet
Colour: ffff00
EndChar

StartChar: parenleft
Encoding: 40 40 63
Width: 636
VWidth: 1839
Flags: HMW
LayerCount: 2
Fore
SplineSet
375 1412 m 1
 247 1149 215 967 215 682 c 0
 215 397 293 217 421 -46 c 1025
EndSplineSet
Colour: ffff
EndChar

StartChar: less
Encoding: 60 60 65
Width: 585
VWidth: 1839
Flags: HMW
LayerCount: 2
Fore
SplineSet
425 413 m 1
 351 535 262 640 160 729 c 1
 262 814 352 917 425 1045 c 1025
EndSplineSet
Colour: ffff
EndChar

StartChar: backslash
Encoding: 92 92 66
Width: 967
VWidth: 2426
Flags: HMW
LayerCount: 2
Fore
SplineSet
144 1316 m 17
 457 895 698 545 889 0 c 1025
EndSplineSet
Colour: ffff
EndChar

StartChar: asterisk
Encoding: 42 42 67
Width: 1108
VWidth: 1839
Flags: HMW
LayerCount: 2
Fore
SplineSet
907 670 m 0
 793 764 675 845 554 915 c 0
 428 989 296 1050 160 1101 c 1024
200 670 m 0
 314 764 433 845 554 915 c 0
 680 989 812 1050 948 1101 c 1024
517 1345 m 0
 543 1198 554 1055 554 915 c 0
 554 768 541 625 517 482 c 1024
EndSplineSet
Colour: ffff
EndChar

StartChar: numbersign
Encoding: 35 35 68
Width: 1734
VWidth: 1823
Flags: HMW
LayerCount: 2
Fore
SplineSet
160 496 m 1
 1510 445 l 1025
252 922 m 1
 1574 961 l 1025
1053 0 m 1
 1313 1361 l 1025
388 0 m 1
 795 1361 l 1025
EndSplineSet
Colour: ffff
EndChar

StartChar: percent
Encoding: 37 37 69
Width: 1348
VWidth: 1823
Flags: HMW
LayerCount: 2
Fore
SplineSet
383 0 m 1
 522 555 751 953 993 1361 c 1025
967 86 m 0
 869 86 793 181 793 293 c 0
 793 405 867 474 979 474 c 0
 1091 474 1188 395 1188 283 c 0
 1188 171 1077 86 967 86 c 0
160 1158 m 0
 160 1256 255 1331 367 1331 c 0
 479 1331 547 1257 547 1145 c 0
 547 1033 469 938 357 938 c 0
 245 938 160 1048 160 1158 c 0
EndSplineSet
Colour: ffff
EndChar

StartChar: slash
Encoding: 47 47 70
Width: 965
VWidth: 1839
Flags: HMW
LayerCount: 2
Fore
SplineSet
200 0 m 1
 471 450 667 891 765 1361 c 1025
EndSplineSet
Colour: ffff
EndChar

StartChar: equal
Encoding: 61 61 72
Width: 1037
VWidth: 1839
Flags: HMW
LayerCount: 2
Fore
SplineSet
160 875 m 1
 275 865 465 861 557 861 c 0
 668 861 784 867 877 875 c 1025
160 471 m 1
 216 460 393 456 498 456 c 0
 605 456 747 461 877 471 c 1025
EndSplineSet
Colour: ffff
EndChar

StartChar: AE
Encoding: 198 198 75
Width: 1909
VWidth: 2426
Flags: HMW
LayerCount: 2
Fore
SplineSet
1059 1316 m 0
 1060 1259 1061 1191 1061 1119 c 0
 1061 828 1058 451 1017 217 c 0
 1014 202 1012 186 1012 173 c 0
 1012 55 1139 8 1280 0 c 0
 1406 -8 1508 -13 1636 -13 c 0
 1678 -13 1718 -14 1760 -12 c 1033
1782 1374 m 17
 1616 1335 1441 1317 1258 1317 c 0
 1186 1317 800 1321 725 1325 c 1
 648 906 403 318 134 0 c 1025
501 692 m 0
 661 705 956 711 1153 711 c 0
 1353 711 1550 705 1697 693 c 1033
EndSplineSet
Colour: ffff
EndChar

StartChar: cedilla
Encoding: 184 184 77
Width: 729
VWidth: 2426
Flags: HMW
LayerCount: 2
Fore
SplineSet
327 0 m 0
 416 -72 557 -239 557 -361 c 0
 557 -441 495 -501 319 -501 c 0
 258 -501 199 -492 160 -481 c 1025
EndSplineSet
Colour: ffff
EndChar

StartChar: Oslash
Encoding: 216 216 78
Width: 1485
VWidth: 1823
Flags: HMW
LayerCount: 2
Fore
SplineSet
170 45 m 1
 520 570 894 917 1334 1316 c 1025
EndSplineSet
Refer: 27 79 N 1 0 0 1 0 0 2
Colour: ffff
EndChar

StartChar: uni0627
Encoding: 1575 1575 80
Width: 445
VWidth: 1839
Flags: HMW
AnchorPoint: "Anchor-3" 269 1459 basechar 0
AnchorPoint: "Anchor-1" 144 0 basechar 0
LayerCount: 2
Fore
SplineSet
200 1316 m 0
 232 1076 245 794 245 531 c 0
 245 366 238 166 224 1 c 1024
EndSplineSet
PairPos2: "'kern' Horizontal Kerning in Arabic lookup 2 per glyph data 0" uni063A dx=-267 dy=0 dh=-267 dv=0 dx=0 dy=0 dh=0 dv=0
PairPos2: "'kern' Horizontal Kerning in Arabic lookup 2 per glyph data 0" uni0639 dx=-267 dy=0 dh=-267 dv=0 dx=0 dy=0 dh=0 dv=0
Substitution2: "'fina' Terminal Forms in Arabic lookup 4 subtable" uniFE8E
PairPos2: "'kern' Horizontal Kerning in Arabic lookup 2 per glyph data 1" uni0639 dx=-200 dy=0 dh=-200 dv=0 dx=0 dy=0 dh=0 dv=0
PairPos2: "'kern' Horizontal Kerning in Arabic lookup 2 per glyph data 1" uni063A dx=-200 dy=0 dh=-200 dv=0 dx=0 dy=0 dh=0 dv=0
Colour: ffff
EndChar

StartChar: uni066E
Encoding: 1646 1646 81
Width: 1706
VWidth: 2370
Flags: HMW
AnchorPoint: "Anchor-3" 829 519 basechar 0
AnchorPoint: "Anchor-1" 794 0 basechar 0
LayerCount: 2
Fore
SplineSet
1448 643 m 0
 1512 595 1556 494 1556 400 c 0
 1556 105 1110 45 821 45 c 0
 518 45 150 86 150 389 c 0
 150 449 169 534 203 580 c 1024
EndSplineSet
Substitution2: "'fina' Terminal Forms in Arabic lookup 4 subtable" uniFBE8
Colour: ffff
EndChar

StartChar: uni0631
Encoding: 1585 1585 82
Width: 885
VWidth: 2370
Flags: HMW
AnchorPoint: "Anchor-1" 505 -394 basechar 0
AnchorPoint: "Anchor-3" 648 624 basechar 0
LayerCount: 2
Fore
SplineSet
200 -457 m 0
 539 -410 735 -214 735 181 c 0
 735 299 715 426 673 527 c 1024
EndSplineSet
PairPos2: "'kern' Horizontal Kerning in Arabic lookup 2 per glyph data 2" uniFBFE dx=-134 dy=0 dh=-134 dv=0 dx=0 dy=0 dh=0 dv=0
PairPos2: "'kern' Horizontal Kerning in Arabic lookup 2 per glyph data 2" uniFEF3 dx=-134 dy=0 dh=-134 dv=0 dx=0 dy=0 dh=0 dv=0
PairPos2: "'kern' Horizontal Kerning in Arabic lookup 2 per glyph data 2" uniFB58 dx=-134 dy=0 dh=-134 dv=0 dx=0 dy=0 dh=0 dv=0
Substitution2: "'fina' Terminal Forms in Arabic lookup 4 subtable" uniFEAE
PairPos2: "'kern' Horizontal Kerning in Arabic lookup 2 per glyph data 3" uni06A9 dx=-267 dy=0 dh=-267 dv=0 dx=0 dy=0 dh=0 dv=0
PairPos2: "'kern' Horizontal Kerning in Arabic lookup 2 per glyph data 3" uni06AF dx=-267 dy=0 dh=-267 dv=0 dx=0 dy=0 dh=0 dv=0
PairPos2: "'kern' Horizontal Kerning in Arabic lookup 2 per glyph data 3" uniFB90 dx=-267 dy=0 dh=-267 dv=0 dx=0 dy=0 dh=0 dv=0
PairPos2: "'kern' Horizontal Kerning in Arabic lookup 2 per glyph data 3" uniFB94 dx=-267 dy=0 dh=-267 dv=0 dx=0 dy=0 dh=0 dv=0
PairPos2: "'kern' Horizontal Kerning in Arabic lookup 2 per glyph data 3" uniFEDB dx=-267 dy=0 dh=-267 dv=0 dx=0 dy=0 dh=0 dv=0
PairPos2: "'kern' Horizontal Kerning in Arabic lookup 2 per glyph data 2" uni0622 dx=-267 dy=0 dh=-267 dv=0 dx=0 dy=0 dh=0 dv=0
PairPos2: "'kern' Horizontal Kerning in Arabic lookup 2 per glyph data 2" uni0623 dx=-267 dy=0 dh=-267 dv=0 dx=0 dy=0 dh=0 dv=0
PairPos2: "'kern' Horizontal Kerning in Arabic lookup 2 per glyph data 2" uni0624 dx=-233 dy=0 dh=-233 dv=0 dx=0 dy=0 dh=0 dv=0
PairPos2: "'kern' Horizontal Kerning in Arabic lookup 2 per glyph data 2" uni0627 dx=-267 dy=0 dh=-267 dv=0 dx=0 dy=0 dh=0 dv=0
PairPos2: "'kern' Horizontal Kerning in Arabic lookup 2 per glyph data 2" uni0628 dx=-334 dy=0 dh=-334 dv=0 dx=0 dy=0 dh=0 dv=0
PairPos2: "'kern' Horizontal Kerning in Arabic lookup 2 per glyph data 2" uni0629 dx=-334 dy=0 dh=-334 dv=0 dx=0 dy=0 dh=0 dv=0
PairPos2: "'kern' Horizontal Kerning in Arabic lookup 2 per glyph data 2" uni062A dx=-334 dy=0 dh=-334 dv=0 dx=0 dy=0 dh=0 dv=0
PairPos2: "'kern' Horizontal Kerning in Arabic lookup 2 per glyph data 2" uni062B dx=-334 dy=0 dh=-334 dv=0 dx=0 dy=0 dh=0 dv=0
PairPos2: "'kern' Horizontal Kerning in Arabic lookup 2 per glyph data 2" uni062C dx=-111 dy=0 dh=-111 dv=0 dx=0 dy=0 dh=0 dv=0
PairPos2: "'kern' Horizontal Kerning in Arabic lookup 2 per glyph data 2" uni062D dx=-111 dy=0 dh=-111 dv=0 dx=0 dy=0 dh=0 dv=0
PairPos2: "'kern' Horizontal Kerning in Arabic lookup 2 per glyph data 2" uni062E dx=-111 dy=0 dh=-111 dv=0 dx=0 dy=0 dh=0 dv=0
PairPos2: "'kern' Horizontal Kerning in Arabic lookup 2 per glyph data 2" uni062F dx=-334 dy=0 dh=-334 dv=0 dx=0 dy=0 dh=0 dv=0
PairPos2: "'kern' Horizontal Kerning in Arabic lookup 2 per glyph data 2" uni0630 dx=-334 dy=0 dh=-334 dv=0 dx=0 dy=0 dh=0 dv=0
PairPos2: "'kern' Horizontal Kerning in Arabic lookup 2 per glyph data 2" uni0631 dx=-233 dy=0 dh=-233 dv=0 dx=0 dy=0 dh=0 dv=0
PairPos2: "'kern' Horizontal Kerning in Arabic lookup 2 per glyph data 2" uni0632 dx=-233 dy=0 dh=-233 dv=0 dx=0 dy=0 dh=0 dv=0
PairPos2: "'kern' Horizontal Kerning in Arabic lookup 2 per glyph data 2" uni0633 dx=-334 dy=0 dh=-334 dv=0 dx=0 dy=0 dh=0 dv=0
PairPos2: "'kern' Horizontal Kerning in Arabic lookup 2 per glyph data 2" uni0634 dx=-334 dy=0 dh=-334 dv=0 dx=0 dy=0 dh=0 dv=0
PairPos2: "'kern' Horizontal Kerning in Arabic lookup 2 per glyph data 2" uni0635 dx=-334 dy=0 dh=-334 dv=0 dx=0 dy=0 dh=0 dv=0
PairPos2: "'kern' Horizontal Kerning in Arabic lookup 2 per glyph data 2" uni0636 dx=-334 dy=0 dh=-334 dv=0 dx=0 dy=0 dh=0 dv=0
PairPos2: "'kern' Horizontal Kerning in Arabic lookup 2 per glyph data 2" uni0637 dx=-334 dy=0 dh=-334 dv=0 dx=0 dy=0 dh=0 dv=0
PairPos2: "'kern' Horizontal Kerning in Arabic lookup 2 per glyph data 2" uni0638 dx=-334 dy=0 dh=-334 dv=0 dx=0 dy=0 dh=0 dv=0
PairPos2: "'kern' Horizontal Kerning in Arabic lookup 2 per glyph data 2" uni0641 dx=-334 dy=0 dh=-334 dv=0 dx=0 dy=0 dh=0 dv=0
PairPos2: "'kern' Horizontal Kerning in Arabic lookup 2 per glyph data 2" uni0642 dx=-134 dy=0 dh=-134 dv=0 dx=0 dy=0 dh=0 dv=0
PairPos2: "'kern' Horizontal Kerning in Arabic lookup 2 per glyph data 2" uni0643 dx=-334 dy=0 dh=-334 dv=0 dx=0 dy=0 dh=0 dv=0
PairPos2: "'kern' Horizontal Kerning in Arabic lookup 2 per glyph data 2" uni0644 dx=-100 dy=0 dh=-100 dv=0 dx=0 dy=0 dh=0 dv=0
PairPos2: "'kern' Horizontal Kerning in Arabic lookup 2 per glyph data 2" uni0645 dx=-334 dy=0 dh=-334 dv=0 dx=0 dy=0 dh=0 dv=0
PairPos2: "'kern' Horizontal Kerning in Arabic lookup 2 per glyph data 2" uni0646 dx=-134 dy=0 dh=-134 dv=0 dx=0 dy=0 dh=0 dv=0
PairPos2: "'kern' Horizontal Kerning in Arabic lookup 2 per glyph data 2" uni0647 dx=-334 dy=0 dh=-334 dv=0 dx=0 dy=0 dh=0 dv=0
PairPos2: "'kern' Horizontal Kerning in Arabic lookup 2 per glyph data 2" uni0648 dx=-233 dy=0 dh=-233 dv=0 dx=0 dy=0 dh=0 dv=0
PairPos2: "'kern' Horizontal Kerning in Arabic lookup 2 per glyph data 2" uni067E dx=-334 dy=0 dh=-334 dv=0 dx=0 dy=0 dh=0 dv=0
PairPos2: "'kern' Horizontal Kerning in Arabic lookup 2 per glyph data 2" uni0686 dx=-111 dy=0 dh=-111 dv=0 dx=0 dy=0 dh=0 dv=0
PairPos2: "'kern' Horizontal Kerning in Arabic lookup 2 per glyph data 2" uni0698 dx=-233 dy=0 dh=-233 dv=0 dx=0 dy=0 dh=0 dv=0
PairPos2: "'kern' Horizontal Kerning in Arabic lookup 2 per glyph data 2" uni06A9 dx=-601 dy=0 dh=-601 dv=0 dx=0 dy=0 dh=0 dv=0
PairPos2: "'kern' Horizontal Kerning in Arabic lookup 2 per glyph data 2" uni06AF dx=-601 dy=0 dh=-601 dv=0 dx=0 dy=0 dh=0 dv=0
PairPos2: "'kern' Horizontal Kerning in Arabic lookup 2 per glyph data 2" uni06C0 dx=-334 dy=0 dh=-334 dv=0 dx=0 dy=0 dh=0 dv=0
PairPos2: "'kern' Horizontal Kerning in Arabic lookup 2 per glyph data 2" uni06CA dx=-233 dy=0 dh=-233 dv=0 dx=0 dy=0 dh=0 dv=0
PairPos2: "'kern' Horizontal Kerning in Arabic lookup 2 per glyph data 2" uniFB7C dx=-334 dy=0 dh=-334 dv=0 dx=0 dy=0 dh=0 dv=0
PairPos2: "'kern' Horizontal Kerning in Arabic lookup 2 per glyph data 2" uniFB90 dx=-601 dy=0 dh=-601 dv=0 dx=0 dy=0 dh=0 dv=0
PairPos2: "'kern' Horizontal Kerning in Arabic lookup 2 per glyph data 2" uniFB94 dx=-601 dy=0 dh=-601 dv=0 dx=0 dy=0 dh=0 dv=0
PairPos2: "'kern' Horizontal Kerning in Arabic lookup 2 per glyph data 2" uniFE8B dx=-334 dy=0 dh=-334 dv=0 dx=0 dy=0 dh=0 dv=0
PairPos2: "'kern' Horizontal Kerning in Arabic lookup 2 per glyph data 2" uniFE91 dx=-334 dy=0 dh=-334 dv=0 dx=0 dy=0 dh=0 dv=0
PairPos2: "'kern' Horizontal Kerning in Arabic lookup 2 per glyph data 2" uniFE97 dx=-334 dy=0 dh=-334 dv=0 dx=0 dy=0 dh=0 dv=0
PairPos2: "'kern' Horizontal Kerning in Arabic lookup 2 per glyph data 2" uniFE9B dx=-334 dy=0 dh=-334 dv=0 dx=0 dy=0 dh=0 dv=0
PairPos2: "'kern' Horizontal Kerning in Arabic lookup 2 per glyph data 2" uniFE9F dx=-334 dy=0 dh=-334 dv=0 dx=0 dy=0 dh=0 dv=0
PairPos2: "'kern' Horizontal Kerning in Arabic lookup 2 per glyph data 2" uniFEA3 dx=-334 dy=0 dh=-334 dv=0 dx=0 dy=0 dh=0 dv=0
PairPos2: "'kern' Horizontal Kerning in Arabic lookup 2 per glyph data 2" uniFEA7 dx=-334 dy=0 dh=-334 dv=0 dx=0 dy=0 dh=0 dv=0
PairPos2: "'kern' Horizontal Kerning in Arabic lookup 2 per glyph data 2" uniFEB3 dx=-334 dy=0 dh=-334 dv=0 dx=0 dy=0 dh=0 dv=0
PairPos2: "'kern' Horizontal Kerning in Arabic lookup 2 per glyph data 2" uniFEB7 dx=-334 dy=0 dh=-334 dv=0 dx=0 dy=0 dh=0 dv=0
PairPos2: "'kern' Horizontal Kerning in Arabic lookup 2 per glyph data 2" uniFEBB dx=-334 dy=0 dh=-334 dv=0 dx=0 dy=0 dh=0 dv=0
PairPos2: "'kern' Horizontal Kerning in Arabic lookup 2 per glyph data 2" uniFEBF dx=-334 dy=0 dh=-334 dv=0 dx=0 dy=0 dh=0 dv=0
PairPos2: "'kern' Horizontal Kerning in Arabic lookup 2 per glyph data 2" uniFEC3 dx=-334 dy=0 dh=-334 dv=0 dx=0 dy=0 dh=0 dv=0
PairPos2: "'kern' Horizontal Kerning in Arabic lookup 2 per glyph data 2" uniFEC7 dx=-334 dy=0 dh=-334 dv=0 dx=0 dy=0 dh=0 dv=0
PairPos2: "'kern' Horizontal Kerning in Arabic lookup 2 per glyph data 2" uniFECB dx=-334 dy=0 dh=-334 dv=0 dx=0 dy=0 dh=0 dv=0
PairPos2: "'kern' Horizontal Kerning in Arabic lookup 2 per glyph data 2" uniFECF dx=-334 dy=0 dh=-334 dv=0 dx=0 dy=0 dh=0 dv=0
PairPos2: "'kern' Horizontal Kerning in Arabic lookup 2 per glyph data 2" uniFED3 dx=-334 dy=0 dh=-334 dv=0 dx=0 dy=0 dh=0 dv=0
PairPos2: "'kern' Horizontal Kerning in Arabic lookup 2 per glyph data 2" uniFED7 dx=-334 dy=0 dh=-334 dv=0 dx=0 dy=0 dh=0 dv=0
PairPos2: "'kern' Horizontal Kerning in Arabic lookup 2 per glyph data 2" uniFEDB dx=-601 dy=0 dh=-601 dv=0 dx=0 dy=0 dh=0 dv=0
PairPos2: "'kern' Horizontal Kerning in Arabic lookup 2 per glyph data 2" uniFEDF dx=-334 dy=0 dh=-334 dv=0 dx=0 dy=0 dh=0 dv=0
PairPos2: "'kern' Horizontal Kerning in Arabic lookup 2 per glyph data 2" uniFEE3 dx=-334 dy=0 dh=-334 dv=0 dx=0 dy=0 dh=0 dv=0
PairPos2: "'kern' Horizontal Kerning in Arabic lookup 2 per glyph data 2" uniFEE7 dx=-334 dy=0 dh=-334 dv=0 dx=0 dy=0 dh=0 dv=0
PairPos2: "'kern' Horizontal Kerning in Arabic lookup 2 per glyph data 2" uniFEEB dx=-334 dy=0 dh=-334 dv=0 dx=0 dy=0 dh=0 dv=0
PairPos2: "'kern' Horizontal Kerning in Arabic lookup 2 per glyph data 2" uniFEF5 dx=-334 dy=0 dh=-334 dv=0 dx=0 dy=0 dh=0 dv=0
PairPos2: "'kern' Horizontal Kerning in Arabic lookup 2 per glyph data 2" uniFEF7 dx=-334 dy=0 dh=-334 dv=0 dx=0 dy=0 dh=0 dv=0
PairPos2: "'kern' Horizontal Kerning in Arabic lookup 2 per glyph data 2" uniFEF9 dx=-334 dy=0 dh=-334 dv=0 dx=0 dy=0 dh=0 dv=0
PairPos2: "'kern' Horizontal Kerning in Arabic lookup 2 per glyph data 2" uniFEFB dx=-334 dy=0 dh=-334 dv=0 dx=0 dy=0 dh=0 dv=0
PairPos2: "'kern' Horizontal Kerning in Arabic lookup 2 per glyph data 1" uni0639 dx=-134 dy=0 dh=-134 dv=0 dx=0 dy=0 dh=0 dv=0
PairPos2: "'kern' Horizontal Kerning in Arabic lookup 2 per glyph data 1" uni063A dx=-134 dy=0 dh=-134 dv=0 dx=0 dy=0 dh=0 dv=0
Colour: ffff
EndChar

StartChar: uni0633
Encoding: 1587 1587 83
Width: 2426
VWidth: 2315
Flags: HMW
AnchorPoint: "Anchor-1" 720 -526 basechar 0
AnchorPoint: "Anchor-3" 1751 565 basechar 0
LayerCount: 2
Fore
SplineSet
2196 681 m 0
 2248 602 2276 479 2276 359 c 0
 2276 178 2201 5 2051 5 c 0
 1940 5 1828 117 1828 326 c 0
 1828 357 1831 390 1836 426 c 1
 1797 162 1712 4 1553 4 c 0
 1391 4 1313 138 1222 443 c 1
 1267 348 1298 139 1298 50 c 0
 1298 -278 1020 -487 689 -487 c 0
 422 -487 150 -348 150 -68 c 0
 150 176 341 376 488 459 c 1024
EndSplineSet
Substitution2: "'init' Initial Forms in Arabic lookup 6 subtable" uniFEB3
Substitution2: "'medi' Medial Forms in Arabic lookup 5 subtable" uniFEB4
Substitution2: "'fina' Terminal Forms in Arabic lookup 4 subtable" uniFEB2
Colour: ffff
EndChar

StartChar: uni066F
Encoding: 1647 1647 84
Width: 1441
VWidth: 2370
Flags: HMW
AnchorPoint: "Anchor-1" 720 -526 basechar 0
AnchorPoint: "Anchor-3" 997 823 basechar 0
LayerCount: 2
Fore
SplineSet
1291 89 m 0
 1222 52 1147 21 1046 21 c 0
 871 21 733 118 733 293 c 0
 733 456 844 643 1008 643 c 0
 1239 643 1289 314 1289 91 c 0
 1289 -255 1051 -486 705 -486 c 0
 420 -486 150 -309 150 -28 c 0
 150 165 237 331 344 435 c 1024
EndSplineSet
Substitution2: "'fina' Terminal Forms in Arabic lookup 4 subtable" uniE005
Colour: ffff
EndChar

StartChar: uni06BA
Encoding: 1722 1722 85
Width: 1453
VWidth: 2370
Flags: HMW
AnchorPoint: "Anchor-3" 735 443 basechar 0
AnchorPoint: "Anchor-1" 735 -526 basechar 0
LayerCount: 2
Fore
SplineSet
1181 457 m 0
 1261 316 1303 152 1303 -1 c 0
 1303 -327 1019 -481 732 -481 c 0
 342 -481 150 -275 150 -37 c 0
 150 152 211 290 331 469 c 1024
EndSplineSet
Colour: ffff
EndChar

StartChar: uni06A1
Encoding: 1697 1697 86
Width: 1699
VWidth: 2370
Flags: HMW
AnchorPoint: "Anchor-1" 801 0 basechar 0
AnchorPoint: "Anchor-3" 1288 1201 basechar 0
LayerCount: 2
Fore
SplineSet
1538 482 m 0
 1461 445 1369 417 1263 417 c 0
 1089 417 971 513 971 687 c 0
 971 853 1065 1036 1231 1036 c 0
 1467 1036 1549 699 1549 467 c 0
 1549 114 1148 45 806 45 c 0
 506 45 150 86 150 386 c 0
 150 446 167 503 201 551 c 1024
EndSplineSet
Substitution2: "'medi' Medial Forms in Arabic lookup 5 subtable" uniE006
Substitution2: "'fina' Terminal Forms in Arabic lookup 4 subtable" uniE005
Colour: ffff
EndChar

StartChar: uni0644
Encoding: 1604 1604 87
Width: 1356
VWidth: 2370
Flags: HMW
AnchorPoint: "Anchor-3" 665 420 basechar 0
AnchorPoint: "Anchor-1" 698 -526 basechar 0
LayerCount: 2
Fore
SplineSet
1154 1361 m 0
 1180 1056 1206 525 1206 206 c 0
 1206 -163 1024 -427 655 -427 c 0
 393 -427 150 -278 150 25 c 0
 150 186 243 368 361 435 c 1024
EndSplineSet
Substitution2: "'init' Initial Forms in Arabic lookup 6 subtable" uniFEDF
Substitution2: "'medi' Medial Forms in Arabic lookup 5 subtable" uniFEE0
Substitution2: "'fina' Terminal Forms in Arabic lookup 4 subtable" uniFEDE
Colour: ffff
EndChar

StartChar: uni0645
Encoding: 1605 1605 88
Width: 1201
VWidth: 2370
Flags: HMW
AnchorPoint: "Anchor-3" 737 753 basechar 0
AnchorPoint: "Anchor-1" 654 -170 basechar 0
LayerCount: 2
Fore
SplineSet
180 -904 m 25
 150 -169 l 2
 150 -160 150 -152 150 -144 c 0
 150 42 241 87 363 87 c 0
 421 87 486 78 552 66 c 0
 619 54 686 45 747 45 c 1
 918 45 1051 122 1051 297 c 0
 1051 480 951 635 768 635 c 0
 541 635 428 440 428 207 c 0
 428 165 432 123 439 82 c 1033
EndSplineSet
Substitution2: "'init' Initial Forms in Arabic lookup 6 subtable" uniFEE3
Substitution2: "'medi' Medial Forms in Arabic lookup 5 subtable" uniFEE4
Substitution2: "'fina' Terminal Forms in Arabic lookup 4 subtable" uniFEE2
Colour: ffff
EndChar

StartChar: uni0635
Encoding: 1589 1589 89
Width: 2493
VWidth: 2315
Flags: HMW
AnchorPoint: "Anchor-1" 720 -526 basechar 0
AnchorPoint: "Anchor-3" 1997 811 basechar 0
LayerCount: 2
Fore
SplineSet
1503.99998022 219.755011101 m 1
 1631.18714445 437.918002091 1824.5097641 614 2071 614 c 0
 2219 614 2343 516 2343 372 c 0
 2343 130 2012 19 1775 19 c 0
 1490 19 1346 135 1228 305 c 1
 1273 228 1298 139 1298 50 c 0
 1298 -278 1021 -487 689 -487 c 0
 422 -487 150 -348 150 -68 c 0
 150 215 452 376 657 459 c 1024
EndSplineSet
Substitution2: "'init' Initial Forms in Arabic lookup 6 subtable" uniFEBB
Substitution2: "'medi' Medial Forms in Arabic lookup 5 subtable" uniFEBC
Substitution2: "'fina' Terminal Forms in Arabic lookup 4 subtable" uniFEBA
Colour: ffff
EndChar

StartChar: uni0648
Encoding: 1608 1608 90
Width: 857
VWidth: 2370
Flags: HMW
AnchorPoint: "Anchor-1" 458 -408 basechar 0
AnchorPoint: "Anchor-3" 504 811 basechar 0
LayerCount: 2
Fore
SplineSet
656 82 m 0
 586 58 517 46 454 46 c 0
 300 46 183 120 183 290 c 0
 183 493 297 676 438 676 c 0
 648 676 697 375 697 169 c 0
 697 -209 467 -398 120 -457 c 1024
EndSplineSet
PairPos2: "'kern' Horizontal Kerning in Arabic lookup 2 per glyph data 4" uni063A dx=178 dy=0 dh=178 dv=0 dx=0 dy=0 dh=0 dv=0
PairPos2: "'kern' Horizontal Kerning in Arabic lookup 2 per glyph data 4" uni0639 dx=178 dy=0 dh=178 dv=0 dx=0 dy=0 dh=0 dv=0
PairPos2: "'kern' Horizontal Kerning in Arabic lookup 2 per glyph data 4" uni0625 dx=223 dy=0 dh=223 dv=0 dx=0 dy=0 dh=0 dv=0
PairPos2: "'kern' Horizontal Kerning in Arabic lookup 2 per glyph data 4" uni06CC dx=89 dy=0 dh=89 dv=0 dx=0 dy=0 dh=0 dv=0
PairPos2: "'kern' Horizontal Kerning in Arabic lookup 2 per glyph data 4" uni0626 dx=89 dy=0 dh=89 dv=0 dx=0 dy=0 dh=0 dv=0
PairPos2: "'kern' Horizontal Kerning in Arabic lookup 2 per glyph data 4" uni064A dx=89 dy=0 dh=89 dv=0 dx=0 dy=0 dh=0 dv=0
PairPos2: "'kern' Horizontal Kerning in Arabic lookup 2 per glyph data 4" uni0649 dx=89 dy=0 dh=89 dv=0 dx=0 dy=0 dh=0 dv=0
Substitution2: "'fina' Terminal Forms in Arabic lookup 4 subtable" uniFEEE
PairPos2: "'kern' Horizontal Kerning in Arabic lookup 2 per glyph data 3" uni06A9 dx=-233 dy=0 dh=-233 dv=0 dx=0 dy=0 dh=0 dv=0
PairPos2: "'kern' Horizontal Kerning in Arabic lookup 2 per glyph data 3" uni06AF dx=-233 dy=0 dh=-233 dv=0 dx=0 dy=0 dh=0 dv=0
PairPos2: "'kern' Horizontal Kerning in Arabic lookup 2 per glyph data 3" uniFB90 dx=-233 dy=0 dh=-233 dv=0 dx=0 dy=0 dh=0 dv=0
PairPos2: "'kern' Horizontal Kerning in Arabic lookup 2 per glyph data 3" uniFB94 dx=-233 dy=0 dh=-233 dv=0 dx=0 dy=0 dh=0 dv=0
PairPos2: "'kern' Horizontal Kerning in Arabic lookup 2 per glyph data 3" uniFEDB dx=-233 dy=0 dh=-233 dv=0 dx=0 dy=0 dh=0 dv=0
Colour: ffff
EndChar

StartChar: uni0637
Encoding: 1591 1591 91
Width: 1491
VWidth: 2370
Flags: HMW
AnchorPoint: "Anchor-3" 1125 811 basechar 0
AnchorPoint: "Anchor-1" 387 0 basechar 0
LayerCount: 2
Fore
SplineSet
409 1360.58398438 m 1
 429.072265625 1055.45019531 472 426 378 -45 c 1
 431 247 717 723 1067 723 c 0
 1218 723 1341 618 1341 469 c 0
 1341 206 971 48 713 48 c 0
 517 48 334 75 150 125 c 1025
EndSplineSet
Substitution2: "'init' Initial Forms in Arabic lookup 6 subtable" uniFEC3
Substitution2: "'medi' Medial Forms in Arabic lookup 5 subtable" uniFEC4
Substitution2: "'fina' Terminal Forms in Arabic lookup 4 subtable" uniFEC2
Colour: ffff
EndChar

StartChar: uni06A9
Encoding: 1705 1705 92
Width: 1932
VWidth: 2370
Flags: HMW
AnchorPoint: "Anchor-3" 1331 1342 basechar 0
AnchorPoint: "Anchor-1" 752 0 basechar 0
LayerCount: 2
Fore
SplineSet
1782 1402 m 1
 968 951 l 1
 1137 804 1329 560 1329 345 c 0
 1329 138 1068 45 760 45 c 0
 480 45 150 92 150 405 c 0
 150 444 156 488 168 536 c 1024
EndSplineSet
Substitution2: "'init' Initial Forms in Arabic lookup 6 subtable" uniFB90
Substitution2: "'medi' Medial Forms in Arabic lookup 5 subtable" uniFB91
Substitution2: "'fina' Terminal Forms in Arabic lookup 4 subtable" uniFB8F
Colour: ffff
EndChar

StartChar: uni062F
Encoding: 1583 1583 93
Width: 880
VWidth: 2370
Flags: HMW
AnchorPoint: "Anchor-3" 483 1006 basechar 0
AnchorPoint: "Anchor-1" 367 0 basechar 0
LayerCount: 2
Fore
SplineSet
365 787 m 1
 519 720 730 512 730 299 c 0
 730 137 584 45 387 45 c 0
 314 45 233 57 150 85 c 1024
EndSplineSet
Substitution2: "'fina' Terminal Forms in Arabic lookup 4 subtable" uniFEAA
PairPos2: "'kern' Horizontal Kerning in Arabic lookup 2 per glyph data 3" uni06A9 dx=-267 dy=0 dh=-267 dv=0 dx=0 dy=0 dh=0 dv=0
PairPos2: "'kern' Horizontal Kerning in Arabic lookup 2 per glyph data 3" uni06AF dx=-267 dy=0 dh=-267 dv=0 dx=0 dy=0 dh=0 dv=0
PairPos2: "'kern' Horizontal Kerning in Arabic lookup 2 per glyph data 3" uniFB90 dx=-267 dy=0 dh=-267 dv=0 dx=0 dy=0 dh=0 dv=0
PairPos2: "'kern' Horizontal Kerning in Arabic lookup 2 per glyph data 3" uniFB94 dx=-267 dy=0 dh=-267 dv=0 dx=0 dy=0 dh=0 dv=0
PairPos2: "'kern' Horizontal Kerning in Arabic lookup 2 per glyph data 3" uniFEDB dx=-267 dy=0 dh=-267 dv=0 dx=0 dy=0 dh=0 dv=0
PairPos2: "'kern' Horizontal Kerning in Arabic lookup 2 per glyph data 1" uni0639 dx=-334 dy=0 dh=-334 dv=0 dx=0 dy=0 dh=0 dv=0
PairPos2: "'kern' Horizontal Kerning in Arabic lookup 2 per glyph data 1" uni063A dx=-334 dy=0 dh=-334 dv=0 dx=0 dy=0 dh=0 dv=0
Colour: ffff
EndChar

StartChar: uni062D
Encoding: 1581 1581 94
Width: 1232
VWidth: 2370
Flags: HMW
AnchorPoint: "Anchor-3" 434 811 basechar 0
AnchorPoint: "Anchor-1" 699 -744 basechar 0
LayerCount: 2
Fore
SplineSet
1078 -526 m 0
 957 -590 820 -623 683 -623 c 0
 418 -623 150 -500 150 -231 c 0
 150 269 958 492 1082 506 c 1
 895.721631217 542.238453995 630.413917957 764.63341894 422.973955393 764.63341894 c 0
 318.455138266 764.63341894 228.626961368 708.174953225 171 543 c 1033
EndSplineSet
Substitution2: "'init' Initial Forms in Arabic lookup 6 subtable" uniFEA3
Substitution2: "'medi' Medial Forms in Arabic lookup 5 subtable" uniFEA4
Substitution2: "'fina' Terminal Forms in Arabic lookup 4 subtable" uniFEA2
Colour: ffff
EndChar

StartChar: uni0639
Encoding: 1593 1593 95
Width: 1277
VWidth: 2370
Flags: HMW
AnchorPoint: "Anchor-3" 600 1249 basechar 0
AnchorPoint: "Anchor-1" 668 -744 basechar 0
LayerCount: 2
Fore
SplineSet
760 1062 m 0
 705 1113 629 1140 554 1140 c 0
 376 1140 209 981 209 790 c 0
 209 608 358 504 540 504 c 0
 600 504 659 511 718 519 c 0
 755 524 793 529 830 532 c 1
 517 510 150 178 150 -169 c 0
 150 -498 414 -642 697 -642 c 0
 847 -642 1003 -602 1127 -526 c 1024
EndSplineSet
Substitution2: "'init' Initial Forms in Arabic lookup 6 subtable" uniFECB
Substitution2: "'medi' Medial Forms in Arabic lookup 5 subtable" uniFECC
Substitution2: "'fina' Terminal Forms in Arabic lookup 4 subtable" uniFECA
Colour: ffff
EndChar

StartChar: uni0622
Encoding: 1570 1570 97
Width: 460
VWidth: 1823
Flags: HMW
AnchorPoint: "Anchor-1" 202 0 basechar 0
AnchorPoint: "Anchor-3" 339 1953 basechar 0
LayerCount: 2
Fore
SplineSet
-137.245117188 1696.26074219 m 0
 -139.732399461 1711.11457182 -141.02622284 1726.72933425 -141.02622284 1743.21282837 c 0
 -141.02622284 1909.83341207 -20.4673699876 2019.05378926 129.605036115 2019.05378926 c 0
 234.807470939 2019.05378926 312.236420005 1981.74073934 383.583007812 1936.78320312 c 0
 450.713221352 1895.00446562 527.959758221 1854.9461106 627.729003598 1854.9461106 c 0
 721.878696549 1854.9461106 800.960796775 1922.89453077 810.327148438 2029.94433594 c 1024
EndSplineSet
Refer: 80 1575 N 1 0 0 1 78 0 2
Substitution2: "Single Substitution 1 subtable" uniE00A
PairPos2: "'kern' Horizontal Kerning in Arabic lookup 2 per glyph data 0" uni063A dx=-267 dy=0 dh=-267 dv=0 dx=0 dy=0 dh=0 dv=0
PairPos2: "'kern' Horizontal Kerning in Arabic lookup 2 per glyph data 0" uni0639 dx=-267 dy=0 dh=-267 dv=0 dx=0 dy=0 dh=0 dv=0
Ligature2: "'liga' Standard Ligatures in Arabic lookup 10 subtable" uni0627 uni0653
Substitution2: "'fina' Terminal Forms in Arabic lookup 4 subtable" uniFE82
PairPos2: "'kern' Horizontal Kerning in Arabic lookup 2 per glyph data 1" uni0639 dx=-200 dy=0 dh=-200 dv=0 dx=0 dy=0 dh=0 dv=0
PairPos2: "'kern' Horizontal Kerning in Arabic lookup 2 per glyph data 1" uni063A dx=-200 dy=0 dh=-200 dv=0 dx=0 dy=0 dh=0 dv=0
LCarets2: 1 0
Colour: ffff
EndChar

StartChar: uni0647
Encoding: 1607 1607 113
Width: 795
VWidth: 2370
Flags: HMW
AnchorPoint: "Anchor-1" 223 89 basechar 0
AnchorPoint: "Anchor-3" 366 1006 basechar 0
LayerCount: 2
Fore
SplineSet
295 863 m 0
 518 670 645 462 645 307 c 0
 645 166 557 45 389 45 c 0
 223 45 150 166 150 292 c 0
 150 435 225 620 389 760 c 1024
EndSplineSet
Substitution2: "'init' Initial Forms in Arabic lookup 6 subtable" uniFEEB
Substitution2: "'medi' Medial Forms in Arabic lookup 5 subtable" uniFEEC
Substitution2: "'fina' Terminal Forms in Arabic lookup 4 subtable" uniFEEA
Colour: ffff
EndChar

StartChar: uniFEB3
Encoding: 65203 65203 114
Width: 1544
VWidth: 2370
Flags: HMW
AnchorPoint: "Anchor-1" 844 0 basechar 0
AnchorPoint: "Anchor-3" 911 565 basechar 0
LayerCount: 2
Fore
SplineSet
1317 649 m 0
 1366 555 1394 430 1394 324 c 0
 1394 181 1340 27 1192 27 c 0
 991 27 929 336 902 527 c 1
 906 501 906 475 906 449 c 0
 906 257 812 45 612 45 c 0
 470 45 374 153 374 295 c 0
 374 378 381 444 394 532 c 1
 372 279 271 45 0 45 c 1024
EndSplineSet
Colour: ffff
EndChar

StartChar: uniFEB4
Encoding: 65204 65204 115
Width: 1747
VWidth: 2370
Flags: HMW
AnchorPoint: "Anchor-3" 893 565 basechar 0
AnchorPoint: "Anchor-1" 891 0 basechar 0
LayerCount: 2
Fore
SplineSet
1747 45 m 0
 1499 45 1427 362 1380 599 c 1
 1393 513 l 2
 1428 278 1389 30 1195 30 c 0
 982 30 926 298 922 520 c 1
 910 300 862 46 626 46 c 0
 431 46 376 288 376 532 c 1
 376 227 286 45 0 45 c 1025
EndSplineSet
Colour: ffff
EndChar

StartChar: uniFEB2
Encoding: 65202 65202 116
Width: 2551
VWidth: 2370
Flags: HMW
AnchorPoint: "Anchor-3" 1773 565 basechar 0
AnchorPoint: "Anchor-1" 749 -526 basechar 0
LayerCount: 2
Fore
SplineSet
2551 45 m 1
 2300 45 2252 327 2211 605 c 1
 2223 544 2232 425 2232 363 c 0
 2232 210 2197 28 2039 28 c 0
 1875 28 1816 193 1837 465 c 1
 1800 199 1692 45 1544 45 c 0
 1377 45 1278 171 1208 452 c 1
 1248 281 1262 164 1262 71 c 0
 1262 -245 993 -449 672 -449 c 0
 413 -449 150 -314 150 -43 c 0
 150 231 306 373 504 520 c 1033
EndSplineSet
Colour: ffff
EndChar

StartChar: uniFE8E
Encoding: 65166 65166 134
Width: 600
VWidth: 2370
Flags: HMW
AnchorPoint: "Anchor-3" 308 1459 basechar 0
AnchorPoint: "Anchor-1" 356 0 basechar 0
LayerCount: 2
Fore
SplineSet
214 1361 m 0
 214 1081.77441406 199.999023438 842.840820312 199.999023438 648.2421875 c 0
 199.999023438 257.030273438 256.583007812 45 597.2578125 45 c 0
 597.504882812 45 597.752929688 45 598 45 c 0
 599 45.0009765625 599 45 600 45 c 1024
EndSplineSet
PairPos2: "'kern' Horizontal Kerning in Arabic lookup 2 per glyph data 1" uni0639 dx=-200 dy=0 dh=-200 dv=0 dx=0 dy=0 dh=0 dv=0
PairPos2: "'kern' Horizontal Kerning in Arabic lookup 2 per glyph data 1" uni063A dx=-200 dy=0 dh=-200 dv=0 dx=0 dy=0 dh=0 dv=0
Colour: ffff
EndChar

StartChar: uniFEA2
Encoding: 65186 65186 142
Width: 1332
VWidth: 1255
Flags: HMW
AnchorPoint: "Anchor-3" 449 811 basechar 0
AnchorPoint: "Anchor-1" 714 -744 basechar 0
LayerCount: 2
Fore
SplineSet
1332 45 m 0
 1077 45 892 228 892 458 c 1025
EndSplineSet
Refer: 94 1581 N 1 0 0 1 0 0 2
Colour: ffff
EndChar

StartChar: uniFEA3
Encoding: 65187 65187 143
Width: 1223
VWidth: 2370
Flags: HMW
AnchorPoint: "Anchor-1" 590 0 basechar 0
AnchorPoint: "Anchor-3" 405 811 basechar 0
LayerCount: 2
Fore
SplineSet
131 532 m 1
 172 690 288 767 396 767 c 0
 580 767 880.611101044 521.26122482 1123 441 c 1
 803 383 544 44.5390625 0 45 c 1024
EndSplineSet
Colour: ffff
EndChar

StartChar: uniFEA4
Encoding: 65188 65188 144
Width: 1335
VWidth: 1373
Flags: HMW
AnchorPoint: "Anchor-3" 396 811 basechar 0
AnchorPoint: "Anchor-1" 510 0 basechar 0
LayerCount: 2
Fore
SplineSet
937 377 m 1
 937 169 1104 45 1335 45 c 1025
EndSplineSet
Refer: 143 65187 N 1 0 0 1 0 0 2
Colour: ffff
EndChar

StartChar: uniFEAA
Encoding: 65194 65194 148
Width: 1114
VWidth: 1437
Flags: HMW
AnchorPoint: "Anchor-1" 435 -144 basechar 0
AnchorPoint: "Anchor-3" 561 1047 basechar 0
LayerCount: 2
Fore
SplineSet
1114 45 m 0
 874 45 800 235 735 420 c 0
 686 564 627 705 559 841 c 1024
724 453 m 0
 736 420 742 386 742 350 c 0
 742 146 568 45 363 45 c 0
 285 45 208 57 134 85 c 1024
EndSplineSet
PairPos2: "'kern' Horizontal Kerning in Arabic lookup 2 per glyph data 3" uni06A9 dx=-267 dy=0 dh=-267 dv=0 dx=0 dy=0 dh=0 dv=0
PairPos2: "'kern' Horizontal Kerning in Arabic lookup 2 per glyph data 3" uni06AF dx=-267 dy=0 dh=-267 dv=0 dx=0 dy=0 dh=0 dv=0
PairPos2: "'kern' Horizontal Kerning in Arabic lookup 2 per glyph data 3" uniFB90 dx=-267 dy=0 dh=-267 dv=0 dx=0 dy=0 dh=0 dv=0
PairPos2: "'kern' Horizontal Kerning in Arabic lookup 2 per glyph data 3" uniFB94 dx=-267 dy=0 dh=-267 dv=0 dx=0 dy=0 dh=0 dv=0
PairPos2: "'kern' Horizontal Kerning in Arabic lookup 2 per glyph data 3" uniFEDB dx=-267 dy=0 dh=-267 dv=0 dx=0 dy=0 dh=0 dv=0
PairPos2: "'kern' Horizontal Kerning in Arabic lookup 2 per glyph data 1" uni0639 dx=-334 dy=0 dh=-334 dv=0 dx=0 dy=0 dh=0 dv=0
PairPos2: "'kern' Horizontal Kerning in Arabic lookup 2 per glyph data 1" uni063A dx=-334 dy=0 dh=-334 dv=0 dx=0 dy=0 dh=0 dv=0
Colour: ffff
EndChar

StartChar: uniFEAE
Encoding: 65198 65198 150
Width: 1027
VWidth: 2370
Flags: HMW
AnchorPoint: "Anchor-1" 505 -394 basechar 0
AnchorPoint: "Anchor-3" 755 624 basechar 0
LayerCount: 2
Fore
SplineSet
1027 45 m 16
 741 45 664 262 592 484 c 1
 632 371 651 236 651 137 c 0
 651 -176 512 -376 184 -457 c 1024
EndSplineSet
PairPos2: "'kern' Horizontal Kerning in Arabic lookup 2 per glyph data 2" uniFBFE dx=-134 dy=0 dh=-134 dv=0 dx=0 dy=0 dh=0 dv=0
PairPos2: "'kern' Horizontal Kerning in Arabic lookup 2 per glyph data 2" uniFEF3 dx=-134 dy=0 dh=-134 dv=0 dx=0 dy=0 dh=0 dv=0
PairPos2: "'kern' Horizontal Kerning in Arabic lookup 2 per glyph data 2" uniFB58 dx=-134 dy=0 dh=-134 dv=0 dx=0 dy=0 dh=0 dv=0
PairPos2: "'kern' Horizontal Kerning in Arabic lookup 2 per glyph data 3" uni06A9 dx=-267 dy=0 dh=-267 dv=0 dx=0 dy=0 dh=0 dv=0
PairPos2: "'kern' Horizontal Kerning in Arabic lookup 2 per glyph data 3" uni06AF dx=-267 dy=0 dh=-267 dv=0 dx=0 dy=0 dh=0 dv=0
PairPos2: "'kern' Horizontal Kerning in Arabic lookup 2 per glyph data 3" uniFB90 dx=-267 dy=0 dh=-267 dv=0 dx=0 dy=0 dh=0 dv=0
PairPos2: "'kern' Horizontal Kerning in Arabic lookup 2 per glyph data 3" uniFB94 dx=-267 dy=0 dh=-267 dv=0 dx=0 dy=0 dh=0 dv=0
PairPos2: "'kern' Horizontal Kerning in Arabic lookup 2 per glyph data 3" uniFEDB dx=-267 dy=0 dh=-267 dv=0 dx=0 dy=0 dh=0 dv=0
PairPos2: "'kern' Horizontal Kerning in Arabic lookup 2 per glyph data 2" uni0622 dx=-267 dy=0 dh=-267 dv=0 dx=0 dy=0 dh=0 dv=0
PairPos2: "'kern' Horizontal Kerning in Arabic lookup 2 per glyph data 2" uni0623 dx=-267 dy=0 dh=-267 dv=0 dx=0 dy=0 dh=0 dv=0
PairPos2: "'kern' Horizontal Kerning in Arabic lookup 2 per glyph data 2" uni0624 dx=-233 dy=0 dh=-233 dv=0 dx=0 dy=0 dh=0 dv=0
PairPos2: "'kern' Horizontal Kerning in Arabic lookup 2 per glyph data 2" uni0627 dx=-267 dy=0 dh=-267 dv=0 dx=0 dy=0 dh=0 dv=0
PairPos2: "'kern' Horizontal Kerning in Arabic lookup 2 per glyph data 2" uni0628 dx=-334 dy=0 dh=-334 dv=0 dx=0 dy=0 dh=0 dv=0
PairPos2: "'kern' Horizontal Kerning in Arabic lookup 2 per glyph data 2" uni0629 dx=-334 dy=0 dh=-334 dv=0 dx=0 dy=0 dh=0 dv=0
PairPos2: "'kern' Horizontal Kerning in Arabic lookup 2 per glyph data 2" uni062A dx=-334 dy=0 dh=-334 dv=0 dx=0 dy=0 dh=0 dv=0
PairPos2: "'kern' Horizontal Kerning in Arabic lookup 2 per glyph data 2" uni062B dx=-334 dy=0 dh=-334 dv=0 dx=0 dy=0 dh=0 dv=0
PairPos2: "'kern' Horizontal Kerning in Arabic lookup 2 per glyph data 2" uni062C dx=-111 dy=0 dh=-111 dv=0 dx=0 dy=0 dh=0 dv=0
PairPos2: "'kern' Horizontal Kerning in Arabic lookup 2 per glyph data 2" uni062D dx=-111 dy=0 dh=-111 dv=0 dx=0 dy=0 dh=0 dv=0
PairPos2: "'kern' Horizontal Kerning in Arabic lookup 2 per glyph data 2" uni062E dx=-111 dy=0 dh=-111 dv=0 dx=0 dy=0 dh=0 dv=0
PairPos2: "'kern' Horizontal Kerning in Arabic lookup 2 per glyph data 2" uni062F dx=-334 dy=0 dh=-334 dv=0 dx=0 dy=0 dh=0 dv=0
PairPos2: "'kern' Horizontal Kerning in Arabic lookup 2 per glyph data 2" uni0630 dx=-334 dy=0 dh=-334 dv=0 dx=0 dy=0 dh=0 dv=0
PairPos2: "'kern' Horizontal Kerning in Arabic lookup 2 per glyph data 2" uni0631 dx=-233 dy=0 dh=-233 dv=0 dx=0 dy=0 dh=0 dv=0
PairPos2: "'kern' Horizontal Kerning in Arabic lookup 2 per glyph data 2" uni0632 dx=-233 dy=0 dh=-233 dv=0 dx=0 dy=0 dh=0 dv=0
PairPos2: "'kern' Horizontal Kerning in Arabic lookup 2 per glyph data 2" uni0633 dx=-334 dy=0 dh=-334 dv=0 dx=0 dy=0 dh=0 dv=0
PairPos2: "'kern' Horizontal Kerning in Arabic lookup 2 per glyph data 2" uni0634 dx=-334 dy=0 dh=-334 dv=0 dx=0 dy=0 dh=0 dv=0
PairPos2: "'kern' Horizontal Kerning in Arabic lookup 2 per glyph data 2" uni0635 dx=-334 dy=0 dh=-334 dv=0 dx=0 dy=0 dh=0 dv=0
PairPos2: "'kern' Horizontal Kerning in Arabic lookup 2 per glyph data 2" uni0636 dx=-334 dy=0 dh=-334 dv=0 dx=0 dy=0 dh=0 dv=0
PairPos2: "'kern' Horizontal Kerning in Arabic lookup 2 per glyph data 2" uni0637 dx=-334 dy=0 dh=-334 dv=0 dx=0 dy=0 dh=0 dv=0
PairPos2: "'kern' Horizontal Kerning in Arabic lookup 2 per glyph data 2" uni0638 dx=-334 dy=0 dh=-334 dv=0 dx=0 dy=0 dh=0 dv=0
PairPos2: "'kern' Horizontal Kerning in Arabic lookup 2 per glyph data 2" uni0641 dx=-334 dy=0 dh=-334 dv=0 dx=0 dy=0 dh=0 dv=0
PairPos2: "'kern' Horizontal Kerning in Arabic lookup 2 per glyph data 2" uni0642 dx=-134 dy=0 dh=-134 dv=0 dx=0 dy=0 dh=0 dv=0
PairPos2: "'kern' Horizontal Kerning in Arabic lookup 2 per glyph data 2" uni0643 dx=-334 dy=0 dh=-334 dv=0 dx=0 dy=0 dh=0 dv=0
PairPos2: "'kern' Horizontal Kerning in Arabic lookup 2 per glyph data 2" uni0644 dx=-100 dy=0 dh=-100 dv=0 dx=0 dy=0 dh=0 dv=0
PairPos2: "'kern' Horizontal Kerning in Arabic lookup 2 per glyph data 2" uni0645 dx=-334 dy=0 dh=-334 dv=0 dx=0 dy=0 dh=0 dv=0
PairPos2: "'kern' Horizontal Kerning in Arabic lookup 2 per glyph data 2" uni0646 dx=-134 dy=0 dh=-134 dv=0 dx=0 dy=0 dh=0 dv=0
PairPos2: "'kern' Horizontal Kerning in Arabic lookup 2 per glyph data 2" uni0647 dx=-334 dy=0 dh=-334 dv=0 dx=0 dy=0 dh=0 dv=0
PairPos2: "'kern' Horizontal Kerning in Arabic lookup 2 per glyph data 2" uni0648 dx=-233 dy=0 dh=-233 dv=0 dx=0 dy=0 dh=0 dv=0
PairPos2: "'kern' Horizontal Kerning in Arabic lookup 2 per glyph data 2" uni067E dx=-334 dy=0 dh=-334 dv=0 dx=0 dy=0 dh=0 dv=0
PairPos2: "'kern' Horizontal Kerning in Arabic lookup 2 per glyph data 2" uni0686 dx=-111 dy=0 dh=-111 dv=0 dx=0 dy=0 dh=0 dv=0
PairPos2: "'kern' Horizontal Kerning in Arabic lookup 2 per glyph data 2" uni0698 dx=-233 dy=0 dh=-233 dv=0 dx=0 dy=0 dh=0 dv=0
PairPos2: "'kern' Horizontal Kerning in Arabic lookup 2 per glyph data 2" uni06A9 dx=-601 dy=0 dh=-601 dv=0 dx=0 dy=0 dh=0 dv=0
PairPos2: "'kern' Horizontal Kerning in Arabic lookup 2 per glyph data 2" uni06AF dx=-601 dy=0 dh=-601 dv=0 dx=0 dy=0 dh=0 dv=0
PairPos2: "'kern' Horizontal Kerning in Arabic lookup 2 per glyph data 2" uni06C0 dx=-334 dy=0 dh=-334 dv=0 dx=0 dy=0 dh=0 dv=0
PairPos2: "'kern' Horizontal Kerning in Arabic lookup 2 per glyph data 2" uni06CA dx=-233 dy=0 dh=-233 dv=0 dx=0 dy=0 dh=0 dv=0
PairPos2: "'kern' Horizontal Kerning in Arabic lookup 2 per glyph data 2" uniFB7C dx=-334 dy=0 dh=-334 dv=0 dx=0 dy=0 dh=0 dv=0
PairPos2: "'kern' Horizontal Kerning in Arabic lookup 2 per glyph data 2" uniFB90 dx=-601 dy=0 dh=-601 dv=0 dx=0 dy=0 dh=0 dv=0
PairPos2: "'kern' Horizontal Kerning in Arabic lookup 2 per glyph data 2" uniFB94 dx=-601 dy=0 dh=-601 dv=0 dx=0 dy=0 dh=0 dv=0
PairPos2: "'kern' Horizontal Kerning in Arabic lookup 2 per glyph data 2" uniFE8B dx=-334 dy=0 dh=-334 dv=0 dx=0 dy=0 dh=0 dv=0
PairPos2: "'kern' Horizontal Kerning in Arabic lookup 2 per glyph data 2" uniFE91 dx=-334 dy=0 dh=-334 dv=0 dx=0 dy=0 dh=0 dv=0
PairPos2: "'kern' Horizontal Kerning in Arabic lookup 2 per glyph data 2" uniFE97 dx=-334 dy=0 dh=-334 dv=0 dx=0 dy=0 dh=0 dv=0
PairPos2: "'kern' Horizontal Kerning in Arabic lookup 2 per glyph data 2" uniFE9B dx=-334 dy=0 dh=-334 dv=0 dx=0 dy=0 dh=0 dv=0
PairPos2: "'kern' Horizontal Kerning in Arabic lookup 2 per glyph data 2" uniFE9F dx=-334 dy=0 dh=-334 dv=0 dx=0 dy=0 dh=0 dv=0
PairPos2: "'kern' Horizontal Kerning in Arabic lookup 2 per glyph data 2" uniFEA3 dx=-334 dy=0 dh=-334 dv=0 dx=0 dy=0 dh=0 dv=0
PairPos2: "'kern' Horizontal Kerning in Arabic lookup 2 per glyph data 2" uniFEA7 dx=-334 dy=0 dh=-334 dv=0 dx=0 dy=0 dh=0 dv=0
PairPos2: "'kern' Horizontal Kerning in Arabic lookup 2 per glyph data 2" uniFEB3 dx=-334 dy=0 dh=-334 dv=0 dx=0 dy=0 dh=0 dv=0
PairPos2: "'kern' Horizontal Kerning in Arabic lookup 2 per glyph data 2" uniFEB7 dx=-334 dy=0 dh=-334 dv=0 dx=0 dy=0 dh=0 dv=0
PairPos2: "'kern' Horizontal Kerning in Arabic lookup 2 per glyph data 2" uniFEBB dx=-334 dy=0 dh=-334 dv=0 dx=0 dy=0 dh=0 dv=0
PairPos2: "'kern' Horizontal Kerning in Arabic lookup 2 per glyph data 2" uniFEBF dx=-334 dy=0 dh=-334 dv=0 dx=0 dy=0 dh=0 dv=0
PairPos2: "'kern' Horizontal Kerning in Arabic lookup 2 per glyph data 2" uniFEC3 dx=-334 dy=0 dh=-334 dv=0 dx=0 dy=0 dh=0 dv=0
PairPos2: "'kern' Horizontal Kerning in Arabic lookup 2 per glyph data 2" uniFEC7 dx=-334 dy=0 dh=-334 dv=0 dx=0 dy=0 dh=0 dv=0
PairPos2: "'kern' Horizontal Kerning in Arabic lookup 2 per glyph data 2" uniFECB dx=-334 dy=0 dh=-334 dv=0 dx=0 dy=0 dh=0 dv=0
PairPos2: "'kern' Horizontal Kerning in Arabic lookup 2 per glyph data 2" uniFECF dx=-334 dy=0 dh=-334 dv=0 dx=0 dy=0 dh=0 dv=0
PairPos2: "'kern' Horizontal Kerning in Arabic lookup 2 per glyph data 2" uniFED3 dx=-334 dy=0 dh=-334 dv=0 dx=0 dy=0 dh=0 dv=0
PairPos2: "'kern' Horizontal Kerning in Arabic lookup 2 per glyph data 2" uniFED7 dx=-334 dy=0 dh=-334 dv=0 dx=0 dy=0 dh=0 dv=0
PairPos2: "'kern' Horizontal Kerning in Arabic lookup 2 per glyph data 2" uniFEDB dx=-601 dy=0 dh=-601 dv=0 dx=0 dy=0 dh=0 dv=0
PairPos2: "'kern' Horizontal Kerning in Arabic lookup 2 per glyph data 2" uniFEDF dx=-334 dy=0 dh=-334 dv=0 dx=0 dy=0 dh=0 dv=0
PairPos2: "'kern' Horizontal Kerning in Arabic lookup 2 per glyph data 2" uniFEE3 dx=-334 dy=0 dh=-334 dv=0 dx=0 dy=0 dh=0 dv=0
PairPos2: "'kern' Horizontal Kerning in Arabic lookup 2 per glyph data 2" uniFEE7 dx=-334 dy=0 dh=-334 dv=0 dx=0 dy=0 dh=0 dv=0
PairPos2: "'kern' Horizontal Kerning in Arabic lookup 2 per glyph data 2" uniFEEB dx=-334 dy=0 dh=-334 dv=0 dx=0 dy=0 dh=0 dv=0
PairPos2: "'kern' Horizontal Kerning in Arabic lookup 2 per glyph data 2" uniFEF5 dx=-334 dy=0 dh=-334 dv=0 dx=0 dy=0 dh=0 dv=0
PairPos2: "'kern' Horizontal Kerning in Arabic lookup 2 per glyph data 2" uniFEF7 dx=-334 dy=0 dh=-334 dv=0 dx=0 dy=0 dh=0 dv=0
PairPos2: "'kern' Horizontal Kerning in Arabic lookup 2 per glyph data 2" uniFEF9 dx=-334 dy=0 dh=-334 dv=0 dx=0 dy=0 dh=0 dv=0
PairPos2: "'kern' Horizontal Kerning in Arabic lookup 2 per glyph data 2" uniFEFB dx=-334 dy=0 dh=-334 dv=0 dx=0 dy=0 dh=0 dv=0
PairPos2: "'kern' Horizontal Kerning in Arabic lookup 2 per glyph data 1" uni0639 dx=-134 dy=0 dh=-134 dv=0 dx=0 dy=0 dh=0 dv=0
PairPos2: "'kern' Horizontal Kerning in Arabic lookup 2 per glyph data 1" uni063A dx=-134 dy=0 dh=-134 dv=0 dx=0 dy=0 dh=0 dv=0
Colour: ffff
EndChar

StartChar: uniFEBA
Encoding: 65210 65210 155
Width: 2443
VWidth: 1839
Flags: HMW
AnchorPoint: "Anchor-1" 720 -526 basechar 0
AnchorPoint: "Anchor-3" 2055 811 basechar 0
LayerCount: 2
Fore
SplineSet
1705 45 m 0
 2443 45 l 1024
1394 125 m 1
 1521 386 1749 650 2000 650 c 0
 2141 650 2248 546 2248 381 c 0
 2248 147 1930 45 1705 45 c 0
 1473 45 1294 154 1182 317 c 1
 1226 243 1249 158 1249 73 c 0
 1249 -240 984 -442 666 -442 c 0
 410 -442 150 -307 150 -40 c 0
 150 231 438 386 635 465 c 1024
EndSplineSet
Colour: ffff
EndChar

StartChar: uniFEBB
Encoding: 65211 65211 156
Width: 1536
VWidth: 2370
Flags: HMW
AnchorPoint: "Anchor-3" 1211 811 basechar 0
AnchorPoint: "Anchor-1" 818 0 basechar 0
LayerCount: 2
Fore
SplineSet
384 -43 m 0
 449 262 735 710 1088 710 c 0
 1253 710 1386 596 1386 434 c 0
 1386 172 1072 47 809 47 c 0
 610 47 329 118 329 325 c 0
 329 385 341 434 353 485 c 1
 353 485 l 1
 305 286 244 45 0 45 c 1024
EndSplineSet
Colour: ffff
EndChar

StartChar: uniFEBC
Encoding: 65212 65212 157
Width: 1601
VWidth: 1839
Flags: HMW
AnchorPoint: "Anchor-1" 818 0 basechar 0
AnchorPoint: "Anchor-3" 1211 811 basechar 0
LayerCount: 2
Fore
SplineSet
416 143 m 0
 500 392 760 710 1060 710 c 0
 1225 710 1359 596 1359 434 c 0
 1359 172 1043 45 780 45 c 0
 581 45 328 118 328 325 c 0
 328 385 340 434 352 485 c 1
 352 485 l 1
 304 286 244 45 0 45 c 1025
780 45 m 0
 1601 45 l 1024
EndSplineSet
Colour: ffff
EndChar

StartChar: uniFEC2
Encoding: 65218 65218 161
Width: 1565
VWidth: 2370
Flags: HMW
AnchorPoint: "Anchor-1" 440 0 basechar 0
AnchorPoint: "Anchor-3" 1178 811 basechar 0
LayerCount: 2
Fore
SplineSet
482 1360.58398438 m 1
 502.072265625 1055.45019531 501 420 444 69 c 1
 552 355 823 723 1120 723 c 0
 1271 723 1394 618 1394 469 c 0
 1394 44.5390625 636.044706803 44.5390625 150 44.5390625 c 9
 1565 45 l 1025
EndSplineSet
Colour: ffff
EndChar

StartChar: uniFEC3
Encoding: 65219 65219 162
Width: 1240
VWidth: 2370
Flags: HMW
AnchorPoint: "Anchor-3" 855 811 basechar 0
AnchorPoint: "Anchor-1" 596 0 basechar 0
LayerCount: 2
Fore
SplineSet
238 1360.609375 m 1
 274 1044 330 321 101 -56 c 1
 243 201 466 719 816 719 c 0
 967 719 1090 615 1090 466 c 0
 1090 129 442 45 0 45 c 1024
EndSplineSet
Colour: ffff
EndChar

StartChar: uniFEC4
Encoding: 65220 65220 163
Width: 1258
VWidth: 2370
Flags: HMW
AnchorPoint: "Anchor-1" 596 0 basechar 0
AnchorPoint: "Anchor-3" 855 811 basechar 0
LayerCount: 2
Fore
SplineSet
242 1360.609375 m 1
 280 1015 288 425 215 45 c 1
 290 315 418 659 788 659 c 0
 946 659 1077 551 1077 396 c 0
 1077 67 421 45 0 45 c 1
 1258 45 l 1025
EndSplineSet
Colour: ffff
EndChar

StartChar: uniFECA
Encoding: 65226 65226 167
Width: 1012
VWidth: 2370
Flags: HMW
AnchorPoint: "Anchor-3" 542 811 basechar 0
AnchorPoint: "Anchor-1" 666 -740 basechar 0
LayerCount: 2
Fore
SplineSet
1012 45 m 1
 663 45 343 412 180 634 c 1
 252 706 419 766 565 766 c 0
 703 766 821 712 821 564 c 0
 821 438 700.670667262 367.568066076 621 321 c 0
 479 238 150 45 150 -257 c 0
 150 -573 465 -667 845 -673 c 1025
EndSplineSet
Colour: ffff
EndChar

StartChar: uniFECB
Encoding: 65227 65227 168
Width: 1010
VWidth: 2370
Flags: HMW
AnchorPoint: "Anchor-3" 565 973 basechar 0
AnchorPoint: "Anchor-1" 438 0 basechar 0
LayerCount: 2
Fore
SplineSet
733 714 m 0
 677 765 601 792 525 792 c 0
 343 792 177 631 177 437 c 0
 177 254 326 149 510 149 c 0
 574 149 638 156 699 166 c 0
 752 174 806 181 860 183 c 1
 738 183 651 157 551 127 c 0
 421 88 272 45 0 45 c 1024
EndSplineSet
Colour: ffff
EndChar

StartChar: uniFECC
Encoding: 65228 65228 169
Width: 990
VWidth: 2370
Flags: HMW
AnchorPoint: "Anchor-3" 486 811 basechar 0
AnchorPoint: "Anchor-1" 495 0 basechar 0
LayerCount: 2
Fore
SplineSet
990 45 m 1
 593 45 281 353 134 559 c 1
 223 644 378 712 501 712 c 0
 650 712 822 634 822 483 c 0
 822 214 303 45 0 45 c 1025
EndSplineSet
Colour: ffff
EndChar

StartChar: uniFED2
Encoding: 65234 65234 173
Width: 1819
VWidth: 2189
Flags: HMW
AnchorPoint: "Anchor-3" 1474 1323 basechar 0
AnchorPoint: "Anchor-1" 770 0 basechar 0
LayerCount: 2
Fore
SplineSet
1819 45 m 0
 1449 45 1125 159 1125 472 c 0
 1125 657 1238 782 1389 782 c 0
 1564 782 1654 662 1654 484 c 0
 1654 112 1247 45 830 45 c 1
 507 45 150 90 150 423 c 0
 150 490 170 554 208 607 c 1024
EndSplineSet
Refer: 223 57344 N 1 0 0 1 1243 1190 2
Colour: ffff
EndChar

StartChar: uniFED6
Encoding: 65238 65238 176
Width: 1395
VWidth: 2270
Flags: HMW
AnchorPoint: "Anchor-3" 989 1152 basechar 0
AnchorPoint: "Anchor-1" 702 -526 basechar 0
LayerCount: 2
Fore
SplineSet
1395 45 m 0
 1048 44 l 2
 844 44 668 111 668 316 c 0
 668 481 781 670 947 670 c 0
 1178 670 1241 344 1241 121 c 0
 1241 -236 1034 -472 676 -472 c 0
 387 -472 150 -295 150 -9 c 0
 150 192 242 364 373 446 c 1024
EndSplineSet
Refer: 224 57345 N 1 0 0 1 649 1022 2
Colour: ffff
EndChar

StartChar: uniFEDA
Encoding: 65242 65242 179
Width: 1762
VWidth: 1424
Flags: HMW
AnchorPoint: "Anchor-3" 785 861.475 basechar 0
AnchorPoint: "Anchor-1" 706 0 basechar 0
LayerCount: 2
Fore
SplineSet
1762 45 m 0
 1547 45 1380 163 1380 431 c 1024
1336 1361 m 0
 1364 1146 1380 668 1380 431 c 0
 1380 133 1072 46 776 46 c 0
 471 46 150 128 150 433 c 0
 150 500 171 564 208 617 c 1024
EndSplineSet
Refer: 240 1620 N 1 0 0 1 570 -617.525 2
Colour: ffff
EndChar

StartChar: uniFEDB
Encoding: 65243 65243 180
Width: 1041
VWidth: 2370
Flags: HMW
AnchorPoint: "Anchor-3" 412 1345 basechar 0
AnchorPoint: "Anchor-1" 268 0 basechar 0
LayerCount: 2
Fore
SplineSet
891 1361 m 5
 94 951 l 1
 263 831 544 581 544 366 c 0
 544 159 308 45 0 45 c 1025
EndSplineSet
Colour: ffff
EndChar

StartChar: uniFEDC
Encoding: 65244 65244 181
Width: 987
VWidth: 2370
Flags: HMW
AnchorPoint: "Anchor-1" 268 0 basechar 0
AnchorPoint: "Anchor-3" 412 1345 basechar 0
LayerCount: 2
Fore
SplineSet
987 45 m 0
 723 45 651 204 572 382 c 0
 545.309415198 442.13827968 516 505 479 564 c 1024
EndSplineSet
Refer: 180 65243 N 1 0 0 1 0 0 2
Colour: ffff
EndChar

StartChar: uniFEDE
Encoding: 65246 65246 182
Width: 1541
VWidth: 2370
Flags: HMW
AnchorPoint: "Anchor-1" 649 -526 basechar 0
AnchorPoint: "Anchor-3" 616 420 basechar 0
LayerCount: 2
Fore
SplineSet
1214 349 m 1
 1224 140 1366 45 1541 45 c 1024
1156 1361 m 0
 1176 1108 1202 611 1214 349 c 1
 1214 346 1214 345 1214 342 c 0
 1217 285 1220 228 1220 170 c 0
 1220 -203 1036 -427 663 -427 c 0
 399 -427 150 -266 150 -5 c 0
 150 171 274 305 393 374 c 1024
EndSplineSet
Colour: ffff
EndChar

StartChar: uniFEDF
Encoding: 65247 65247 183
Width: 524
VWidth: 2370
Flags: HMW
AnchorPoint: "Anchor-1" 253 0 basechar 0
AnchorPoint: "Anchor-3" 336 1459 basechar 0
LayerCount: 2
Fore
SplineSet
275 1361 m 0
 313 1072 324 760 324 444 c 0
 324 189 226 45 0 45 c 1024
EndSplineSet
Colour: ffff
EndChar

StartChar: uniFEE0
Encoding: 65248 65248 184
Width: 734
VWidth: 2370
Flags: HMW
AnchorPoint: "Anchor-3" 412 1459 basechar 0
AnchorPoint: "Anchor-1" 277 0 basechar 0
LayerCount: 2
Fore
SplineSet
734 45 m 0
 536 45 367 142 367 369 c 1024
313 1361 m 0
 340 1073 367 679 367 369 c 0
 367 142 219 45 0 45 c 1024
EndSplineSet
Colour: ffff
EndChar

StartChar: uniFEE2
Encoding: 65250 65250 185
Width: 1311
VWidth: 1263
Flags: HMW
AnchorPoint: "Anchor-1" 690 -169 basechar 0
AnchorPoint: "Anchor-3" 768 753 basechar 0
LayerCount: 2
Fore
SplineSet
738 45 m 1
 1311 45 l 1041
EndSplineSet
Refer: 88 1605 N 1 0 0 1 0 0 2
Colour: ffff
EndChar

StartChar: uniFEE4
Encoding: 65252 65252 186
Width: 1219
VWidth: 1350
Flags: HMW
AnchorPoint: "Anchor-1" 671 0 basechar 0
AnchorPoint: "Anchor-3" 667 811 basechar 0
LayerCount: 2
Fore
SplineSet
881 392 m 1
 927 199 1089 45 1219 45 c 1025
EndSplineSet
Refer: 222 65251 N 1 0 0 1 0 0 2
Colour: ffff
EndChar

StartChar: uniFEE6
Encoding: 65254 65254 187
Width: 1559
VWidth: 2286
Flags: HMW
AnchorPoint: "Anchor-3" 719 520 basechar 0
AnchorPoint: "Anchor-1" 704 -526 basechar 0
LayerCount: 2
Fore
SplineSet
1274 228 m 1
 1318 104 1379 45 1559 45 c 1024
EndSplineSet
Refer: 223 57344 N 1 0 0 1 515 145 2
Refer: 85 1722 N 1 0 0 1 0 0 2
Colour: ffff
EndChar

StartChar: uniFEEA
Encoding: 65258 65258 188
Width: 1061
VWidth: 2370
Flags: HMW
AnchorPoint: "Anchor-3" 649 1174 basechar 0
AnchorPoint: "Anchor-1" 395 2 basechar 0
LayerCount: 2
Fore
SplineSet
526 253 m 0
 286 208 150 307 150 458 c 0
 150 589 283 658 412 724 c 0
 538 788 660 850 650 963 c 2
 641 1065 l 1
 682 616 l 2
 721 188 856 45 1061 45 c 1025
EndSplineSet
Colour: ffff
EndChar

StartChar: uniFEEB
Encoding: 65259 65259 189
Width: 1217
VWidth: 2370
Flags: HMW
AnchorPoint: "Anchor-3" 625 872 basechar 0
AnchorPoint: "Anchor-1" 585 0 basechar 0
LayerCount: 2
Fore
SplineSet
124 965 m 1
 460 634 1067 610 1067 307 c 0
 1067 140 958 45 743 45 c 0
 520 45 141 223 141 463 c 0
 141 625 280 728 420 728 c 0
 593 728 687 607 687 460 c 0
 687 227 467 45 0 45 c 1025
EndSplineSet
Colour: ffff
EndChar

StartChar: uniFEEC
Encoding: 65260 65260 190
Width: 930
VWidth: 2370
Flags: HMW
AnchorPoint: "Anchor-3" 534 782 basechar 0
AnchorPoint: "Anchor-1" 418 -557 basechar 0
LayerCount: 2
Fore
SplineSet
930 45 m 9
 663 45 l 1
 697 -26 723 -133 723 -232 c 0
 723 -359 680 -472 554 -472 c 0
 349 -472 180 -143 180 136 c 0
 180 437 294 737 534 737 c 0
 652 737 704 648 704 546 c 0
 704 323 468 45 0 45 c 1025
EndSplineSet
Colour: ffff
EndChar

StartChar: uniFEEE
Encoding: 65262 65262 191
Width: 857
VWidth: 2370
Flags: HMW
AnchorPoint: "Anchor-1" 419 -408 basechar 0
AnchorPoint: "Anchor-3" 466 811 basechar 0
LayerCount: 2
Fore
SplineSet
857 45 m 0
 566 45 l 0
 353 45 185 74.2680435797 185 313 c 0
 185 480 267 671 432 671 c 0
 645 671 711 412 711 139 c 0
 711 -169 452 -410 120 -457 c 1025
EndSplineSet
PairPos2: "'kern' Horizontal Kerning in Arabic lookup 2 per glyph data 4" uni063A dx=178 dy=0 dh=178 dv=0 dx=0 dy=0 dh=0 dv=0
PairPos2: "'kern' Horizontal Kerning in Arabic lookup 2 per glyph data 4" uni0639 dx=178 dy=0 dh=178 dv=0 dx=0 dy=0 dh=0 dv=0
PairPos2: "'kern' Horizontal Kerning in Arabic lookup 2 per glyph data 4" uni0625 dx=178 dy=0 dh=178 dv=0 dx=0 dy=0 dh=0 dv=0
PairPos2: "'kern' Horizontal Kerning in Arabic lookup 2 per glyph data 4" uni06CC dx=89 dy=0 dh=89 dv=0 dx=0 dy=0 dh=0 dv=0
PairPos2: "'kern' Horizontal Kerning in Arabic lookup 2 per glyph data 4" uni0626 dx=89 dy=0 dh=89 dv=0 dx=0 dy=0 dh=0 dv=0
PairPos2: "'kern' Horizontal Kerning in Arabic lookup 2 per glyph data 4" uni064A dx=89 dy=0 dh=89 dv=0 dx=0 dy=0 dh=0 dv=0
PairPos2: "'kern' Horizontal Kerning in Arabic lookup 2 per glyph data 4" uni0649 dx=89 dy=0 dh=89 dv=0 dx=0 dy=0 dh=0 dv=0
PairPos2: "'kern' Horizontal Kerning in Arabic lookup 2 per glyph data 3" uni06A9 dx=-233 dy=0 dh=-233 dv=0 dx=0 dy=0 dh=0 dv=0
PairPos2: "'kern' Horizontal Kerning in Arabic lookup 2 per glyph data 3" uni06AF dx=-233 dy=0 dh=-233 dv=0 dx=0 dy=0 dh=0 dv=0
PairPos2: "'kern' Horizontal Kerning in Arabic lookup 2 per glyph data 3" uniFB90 dx=-233 dy=0 dh=-233 dv=0 dx=0 dy=0 dh=0 dv=0
PairPos2: "'kern' Horizontal Kerning in Arabic lookup 2 per glyph data 3" uniFB94 dx=-233 dy=0 dh=-233 dv=0 dx=0 dy=0 dh=0 dv=0
PairPos2: "'kern' Horizontal Kerning in Arabic lookup 2 per glyph data 3" uniFEDB dx=-233 dy=0 dh=-233 dv=0 dx=0 dy=0 dh=0 dv=0
Colour: ffff
EndChar

StartChar: uniFEFB
Encoding: 65275 65275 199
Width: 1117
VWidth: 1839
Flags: HMW
AnchorPoint: "Anchor-2" 215 1459 baselig 1
AnchorPoint: "Anchor-0" 236 0 baselig 1
AnchorPoint: "Anchor-2" 862 1467 baselig 0
AnchorPoint: "Anchor-0" 807 -3 baselig 0
LayerCount: 2
Fore
SplineSet
274 1338 m 17
 365 1143 458 748 458 329 c 1025
913 1366 m 0
 949 1077 967 699 967 386 c 0
 967 164 753 45 467 45 c 0
 382 45 242 61 150 99 c 1024
EndSplineSet
Ligature2: "'rlig' Required Ligatures in Arabic lookup 7 subtable" uniFEDF uniFE8E
PairPos2: "'kern' Horizontal Kerning in Arabic lookup 2 per glyph data 0" uni062C dx=-134 dy=0 dh=-134 dv=0 dx=0 dy=0 dh=0 dv=0
PairPos2: "'kern' Horizontal Kerning in Arabic lookup 2 per glyph data 0" uni062D dx=-134 dy=0 dh=-134 dv=0 dx=0 dy=0 dh=0 dv=0
PairPos2: "'kern' Horizontal Kerning in Arabic lookup 2 per glyph data 0" uni062E dx=-134 dy=0 dh=-134 dv=0 dx=0 dy=0 dh=0 dv=0
PairPos2: "'kern' Horizontal Kerning in Arabic lookup 2 per glyph data 0" uni0639 dx=-401 dy=0 dh=-401 dv=0 dx=0 dy=0 dh=0 dv=0
PairPos2: "'kern' Horizontal Kerning in Arabic lookup 2 per glyph data 0" uni063A dx=-401 dy=0 dh=-401 dv=0 dx=0 dy=0 dh=0 dv=0
PairPos2: "'kern' Horizontal Kerning in Arabic lookup 2 per glyph data 0" uni0686 dx=-134 dy=0 dh=-134 dv=0 dx=0 dy=0 dh=0 dv=0
LCarets2: 1 0
Colour: ffff
EndChar

StartChar: uniFEFC
Encoding: 65276 65276 200
Width: 1340
VWidth: 1839
Flags: HMW
AnchorPoint: "Anchor-0" 427 0 baselig 1
AnchorPoint: "Anchor-2" 252 1459 baselig 1
AnchorPoint: "Anchor-2" 977 1457 baselig 0
AnchorPoint: "Anchor-0" 959 -1 baselig 0
LayerCount: 2
Fore
SplineSet
1024 637 m 1
 1024 177 1118 45 1340 45 c 1025
309 1304 m 17
 402 1004 471 686 494 357 c 1025
1024 1316 m 0
 1024 637 l 2
 1024 123 713 45 150 45 c 1033
EndSplineSet
Ligature2: "'rlig' Required Ligatures in Arabic lookup 7 subtable" uniFEE0 uniFE8E
PairPos2: "'kern' Horizontal Kerning in Arabic lookup 2 per glyph data 0" uni062C dx=-134 dy=0 dh=-134 dv=0 dx=0 dy=0 dh=0 dv=0
PairPos2: "'kern' Horizontal Kerning in Arabic lookup 2 per glyph data 0" uni062D dx=-134 dy=0 dh=-134 dv=0 dx=0 dy=0 dh=0 dv=0
PairPos2: "'kern' Horizontal Kerning in Arabic lookup 2 per glyph data 0" uni062E dx=-134 dy=0 dh=-134 dv=0 dx=0 dy=0 dh=0 dv=0
PairPos2: "'kern' Horizontal Kerning in Arabic lookup 2 per glyph data 0" uni0639 dx=-401 dy=0 dh=-401 dv=0 dx=0 dy=0 dh=0 dv=0
PairPos2: "'kern' Horizontal Kerning in Arabic lookup 2 per glyph data 0" uni063A dx=-401 dy=0 dh=-401 dv=0 dx=0 dy=0 dh=0 dv=0
PairPos2: "'kern' Horizontal Kerning in Arabic lookup 2 per glyph data 0" uni0686 dx=-134 dy=0 dh=-134 dv=0 dx=0 dy=0 dh=0 dv=0
LCarets2: 1 0
Colour: ffff
EndChar

StartChar: uni06CC
Encoding: 1740 1740 201
Width: 1385
VWidth: 2370
Flags: HMW
AnchorPoint: "Anchor-3" 424 624 basechar 0
AnchorPoint: "Anchor-1" 724 -563 basechar 0
LayerCount: 2
Fore
SplineSet
1218 736 m 0
 1167 780 1094 811 1010 811 c 0
 808 811 629 645 629 430 c 0
 629 187 794 158 938 142 c 0
 1104 123 1235 89 1235 -82 c 0
 1235 -319 1024 -453 730 -453 c 0
 407 -453 150 -272 150 74 c 0
 150 215 193 339 239 441 c 1024
EndSplineSet
Substitution2: "'init' Initial Forms in Arabic lookup 6 subtable" uniFBFE
Substitution2: "'medi' Medial Forms in Arabic lookup 5 subtable" uniFBFF
Substitution2: "'fina' Terminal Forms in Arabic lookup 4 subtable" uniFBFD
Colour: ffff
EndChar

StartChar: uniFBFD
Encoding: 64509 64509 202
Width: 1459
VWidth: 1839
Flags: HMW
AnchorPoint: "Anchor-3" 793 214 basechar 0
AnchorPoint: "Anchor-1" 647 -580 basechar 0
LayerCount: 2
Fore
SplineSet
1459 45 m 1
 837 45 l 1
 1115 20 1249 -106 1249 -232 c 0
 1249 -378 1071 -526 728 -526 c 0
 448 -526 150 -406 150 -72 c 0
 150 56 210 263 353 418 c 1025
EndSplineSet
Colour: ffff
EndChar

StartChar: uniFB8F
Encoding: 64399 64399 205
Width: 1884
VWidth: 1478
Flags: HMW
AnchorPoint: "Anchor-1" 696 0 basechar 0
AnchorPoint: "Anchor-3" 1242 1297 basechar 0
LayerCount: 2
Fore
SplineSet
1195 698 m 0
 1248.1171875 628.423828125 1291.57910156 550.31640625 1334 472 c 0
 1451 256 1567.67089844 45 1884 45 c 1024
EndSplineSet
Refer: 92 1705 N 1 0 0 1 0 0 2
Colour: ffff
EndChar

StartChar: uniFBE8
Encoding: 64488 64488 218
Width: 532
VWidth: 1437
Flags: HMW
AnchorPoint: "Anchor-3" 276 832 basechar 0
AnchorPoint: "Anchor-1" 294 89 basechar 0
LayerCount: 2
Fore
SplineSet
272 827 m 0
 349 643 382 498 382 387 c 0
 382 143 194 45 0 45 c 1024
EndSplineSet
Colour: ffff
EndChar

StartChar: uniFBE9
Encoding: 64489 64489 219
Width: 861
VWidth: 1437
Flags: HMW
AnchorPoint: "Anchor-3" 283 565 basechar 0
AnchorPoint: "Anchor-1" 261 0 basechar 0
LayerCount: 2
Fore
SplineSet
0 45 m 1
 274 45 452 209 452 475 c 0
 452 509 449 545 445 582 c 1
 482 220 524 45 861 45 c 1025
EndSplineSet
Colour: ffff
EndChar

StartChar: uniFEE3
Encoding: 65251 65251 222
Width: 1039
VWidth: 2370
Flags: HMW
AnchorPoint: "Anchor-3" 605 811 basechar 0
AnchorPoint: "Anchor-1" 613 0 basechar 0
LayerCount: 2
Fore
SplineSet
369.999996281 137.07730642 m 1
 442.734617731 77.8552610913 535.959568733 45 623 45 c 0
 763 45 889 129 889 326 c 0
 889 496 748 648 607 648 c 0
 454 648 371 538 326 399 c 0
 269 226 208 45 0 45 c 1024
EndSplineSet
Colour: ffff
EndChar

StartChar: uniE000
Encoding: 57344 57344 223
Width: 424
VWidth: 1823
Flags: HMW
LayerCount: 2
Fore
SplineSet
125 144 m 0
 125 187 168 221 217 221 c 0
 266 221 294 188 294 139 c 0
 294 90 261 48 212 48 c 0
 163 48 125 96 125 144 c 0
EndSplineSet
Colour: ff0000
EndChar

StartChar: uniE001
Encoding: 57345 57345 224
Width: 660
VWidth: 1823
Flags: HMW
LayerCount: 2
Fore
SplineSet
98 99 m 0
 166 149 295 183 400 183 c 0
 489 183 560 160 560 99 c 0
 560 95 559 88 558 84 c 1024
EndSplineSet
Colour: ffff
EndChar

StartChar: uniE002
Encoding: 57346 57346 225
Width: 696
VWidth: 1823
Flags: HMW
LayerCount: 2
Fore
SplineSet
85 381 m 0
 130 414 284 464 402 464 c 0
 484 464 549 439 549 370 c 0
 549 277 415 145 321 118 c 1024
EndSplineSet
Colour: ffff
EndChar

StartChar: uniE003
Encoding: 57347 57347 226
Width: 696
VWidth: 1823
Flags: HMW
LayerCount: 2
Fore
SplineSet
475 126 m 0
 493 153 503 186 503 230 c 0
 503 337 417 406 308 406 c 0
 210 406 122 329 122 234 c 0
 122 139 176 88 233 36 c 1024
EndSplineSet
Colour: ffff
EndChar

StartChar: uniE004
Encoding: 57348 57348 227
Width: 1937
VWidth: 2370
Flags: HMW
AnchorPoint: "Anchor-3" 839 577 basechar 0
AnchorPoint: "Anchor-1" 783 -1 basechar 0
LayerCount: 2
Fore
SplineSet
1937 45 m 0
 1640 45 1571 230 1571 531 c 1
 1498 204 1182 45 779 45 c 0
 400 45 150 174 150 414 c 0
 150 502 161 572 184 638 c 1024
EndSplineSet
Colour: ffff
EndChar

StartChar: uniE005
Encoding: 57349 57349 228
Width: 834
VWidth: 2370
Flags: HMW
AnchorPoint: "Anchor-3" 430 1141 basechar 0
AnchorPoint: "Anchor-1" 372 0 basechar 0
LayerCount: 2
Fore
SplineSet
619 454 m 1
 563 431 498 415 427 415 c 0
 250 415 142 488 142 665 c 0
 142 830 223 1046 410 1046 c 0
 620 1046 684 714 684 399 c 0
 684 128 443 45 0 45 c 1025
EndSplineSet
Colour: ffff
EndChar

StartChar: uniE006
Encoding: 57350 57350 229
Width: 885
VWidth: 2370
Flags: HMW
AnchorPoint: "Anchor-3" 522 921 basechar 0
AnchorPoint: "Anchor-1" 337 0 basechar 0
LayerCount: 2
Fore
SplineSet
885 45 m 0
 517 45 163 192 163 504 c 0
 163 672 300 808 467 808 c 0
 634 808 722 670 722 503 c 0
 722 190 347 45 0 45 c 1024
EndSplineSet
Colour: ffff
EndChar

StartChar: uni064E
Encoding: 1614 1614 230
Width: 0
VWidth: -1171
Flags: HMW
AnchorPoint: "Anchor-5" 206 944 mark 0
AnchorPoint: "Anchor-2" 206 944 mark 0
AnchorPoint: "Anchor-3" 206 944 mark 0
AnchorPoint: "Anchor-5" 206 1404 basemark 0
LayerCount: 2
Fore
SplineSet
15 1341 m 1
 420 1485 l 1025
EndSplineSet
Colour: ffff00
EndChar

StartChar: uni064F
Encoding: 1615 1615 234
Width: 0
VWidth: 2274
Flags: HMW
AnchorPoint: "Anchor-5" 162 858 mark 0
AnchorPoint: "Anchor-5" 171 1537 basemark 0
AnchorPoint: "Anchor-3" 162 858 mark 0
AnchorPoint: "Anchor-2" 162 858 mark 0
LayerCount: 2
Fore
SplineSet
355 1383 m 0
 247 1383 57 1399 57 1508 c 0
 57 1582 106 1678 191 1678 c 0
 274 1678 280 1571 280 1488 c 0
 280 1301 167 1239 -35 1228 c 1024
EndSplineSet
Colour: ffff00
EndChar

StartChar: uni0651
Encoding: 1617 1617 235
Width: 0
VWidth: 2279
Flags: HMW
AnchorPoint: "Anchor-5" 239 858 mark 0
AnchorPoint: "Anchor-5" 239 1330 basemark 0
AnchorPoint: "Anchor-3" 239 858 mark 0
AnchorPoint: "Anchor-2" 239 858 mark 0
LayerCount: 2
Fore
SplineSet
418 1560 m 0
 438 1515 463 1439 463 1374 c 0
 463 1297 422 1263 364 1263 c 0
 295 1263 239 1332 239 1442 c 1
 239 1330 179 1264 110 1264 c 0
 57 1264 16 1294 16 1360 c 0
 16 1413 43 1475 76 1518 c 1024
EndSplineSet
Colour: ffff00
EndChar

StartChar: uni0670
Encoding: 1648 1648 236
Width: 0
VWidth: 1823
Flags: HMW
AnchorPoint: "Anchor-5" 33 861 mark 0
AnchorPoint: "Anchor-5" 33 1413 basemark 0
AnchorPoint: "Anchor-3" 33 861 mark 0
AnchorPoint: "Anchor-2" 33 861 mark 0
LayerCount: 2
Fore
SplineSet
14 1623 m 0
 20 1546 26 1477 26 1409 c 0
 26 1338 19 1268 -4 1199 c 1032
EndSplineSet
Colour: ffff00
EndChar

StartChar: uni064C
Encoding: 1612 1612 237
Width: 0
VWidth: 2274
Flags: HMW
AnchorPoint: "Anchor-5" 180 858 mark 0
AnchorPoint: "Anchor-5" 187 1497 basemark 0
AnchorPoint: "Anchor-3" 180 858 mark 0
AnchorPoint: "Anchor-2" 180 858 mark 0
LayerCount: 2
Fore
SplineSet
197 1891 m 0
 50 1879 -87 1715 -87 1559 c 0
 -87 1507 -72 1457 -37 1413 c 1024
EndSplineSet
Refer: 234 1615 N 1 0 0 1 0 0 2
Colour: ffff00
EndChar

StartChar: uni0652
Encoding: 1618 1618 238
Width: 0
VWidth: 2274
Flags: HMW
AnchorPoint: "Anchor-5" 183 944 mark 0
AnchorPoint: "Anchor-5" 167 1441 basemark 0
AnchorPoint: "Anchor-3" 183 944 mark 0
AnchorPoint: "Anchor-2" 183 944 mark 0
LayerCount: 2
Fore
SplineSet
176 1589 m 0
 259 1589 313 1521 313 1452 c 0
 313 1360 249 1297 175 1297 c 0
 95 1297 37 1365 37 1434 c 0
 37 1523 104 1589 176 1589 c 0
EndSplineSet
Colour: ffff00
EndChar

StartChar: uni0653
Encoding: 1619 1619 239
Width: 0
VWidth: 1823
Flags: HMW
AnchorPoint: "Anchor-5" 308 858 mark 0
AnchorPoint: "Anchor-5" 316 1325 basemark 0
AnchorPoint: "Anchor-3" 308 858 mark 0
AnchorPoint: "Anchor-2" 308 858 mark 0
LayerCount: 2
Fore
SplineSet
571 1416 m 0
 538 1347 490 1288 419 1288 c 0
 387 1288 349 1300 306 1329 c 0
 267 1356 230 1369 194 1369 c 0
 126 1369 67 1324 29 1258 c 1024
EndSplineSet
Colour: ffff00
EndChar

StartChar: uni0654
Encoding: 1620 1620 240
Width: 0
VWidth: 2280
Flags: HMW
AnchorPoint: "Anchor-5" 236 858 mark 0
AnchorPoint: "Anchor-5" 236 1503 basemark 0
AnchorPoint: "Anchor-3" 236 858 mark 0
AnchorPoint: "Anchor-2" 236 858 mark 0
LayerCount: 2
Fore
SplineSet
352 1587 m 1
 317 1634 273 1654 228 1654 c 0
 138 1654 50 1571 50 1463 c 0
 50 1361 123 1323 221 1323 c 0
 282 1323 350 1337 419 1361 c 1
 14 1220 l 1041
EndSplineSet
Colour: ffff00
EndChar

StartChar: uni0615
Encoding: 1557 1557 244
Width: 0
VWidth: 1839
Flags: HMW
AnchorPoint: "Anchor-5" 256 768 mark 0
AnchorPoint: "Anchor-5" 247 1347 basemark 0
AnchorPoint: "Anchor-3" 256 768 mark 0
AnchorPoint: "Anchor-2" 256 768 mark 0
LayerCount: 2
Fore
SplineSet
151 1719 m 0
 166 1629 174 1536 174 1441 c 0
 174 1352 167 1260 152 1164 c 1
 186 1284 263 1422 393 1422 c 0
 460 1422 515 1375 515 1309 c 0
 515 1191 373 1157 258 1157 c 0
 171 1157 90 1169 8 1191 c 1024
EndSplineSet
Colour: ffff00
EndChar

StartChar: uniE007
Encoding: 57351 57351 251
Width: 1067
VWidth: 1839
Flags: HMW
LayerCount: 2
Fore
SplineSet
167 1338 m 1
 761 1705 l 1025
EndSplineSet
Colour: ffff
EndChar

StartChar: uni0643
Encoding: 1603 1603 261
Width: 1550
VWidth: 1478
Flags: HMW
AnchorPoint: "Anchor-3" 791 873 basechar 0
AnchorPoint: "Anchor-1" 703 0 basechar 0
LayerCount: 2
Fore
SplineSet
1353 1316 m 0
 1385 1076 1400 734 1400 471 c 0
 1400 140 1174 45 845 45 c 0
 506 45 150 133 150 473 c 0
 150 548 171 619 213 679 c 1024
EndSplineSet
Refer: 240 1620 N 1 0 0 1 565 -617 2
Substitution2: "'init' Initial Forms in Arabic lookup 6 subtable" uniFEDB
Substitution2: "'medi' Medial Forms in Arabic lookup 5 subtable" uniFEDC
Substitution2: "'fina' Terminal Forms in Arabic lookup 4 subtable" uniFEDA
Colour: ffff
EndChar

StartChar: uni065A
Encoding: 1626 1626 265
Width: 0
VWidth: -365
Flags: HMW
AnchorPoint: "Anchor-5" 240 826 mark 0
AnchorPoint: "Anchor-5" 240 1381 basemark 0
AnchorPoint: "Anchor-3" 240 826 mark 0
AnchorPoint: "Anchor-2" 240 826 mark 0
LayerCount: 2
Fore
SplineSet
460 1524 m 0
 329 1398 243 1134 243 1004 c 1
 243 1134 157 1398 26 1524 c 1024
EndSplineSet
Colour: ffff00
EndChar

StartChar: uni0621
Encoding: 1569 1569 266
Width: 857
VWidth: 2280
Flags: HMW
AnchorPoint: "Anchor-3" 428 736 basechar 0
AnchorPoint: "Anchor-1" 428 175 basechar 0
LayerCount: 2
Fore
SplineSet
605 679 m 0
 567 736 513 776 423 776 c 0
 256 776 142 605 142 451 c 0
 142 325 219 208 404 208 c 0
 460 208 520 212 579 219 c 0
 636 226 692 230 743 230 c 1
 529 189 317 119 121 -15 c 1025
EndSplineSet
Colour: ffff
EndChar

StartChar: uni0640
Encoding: 1600 1600 267
Width: 668
VWidth: 1437
Flags: HMW
AnchorPoint: "Anchor-1" 334 -169 basechar 0
AnchorPoint: "Anchor-3" 334 520 basechar 0
LayerCount: 2
Fore
SplineSet
0 45 m 9
 668 45 l 1025
EndSplineSet
Colour: ffff
EndChar

StartChar: uni0660
Encoding: 1632 1632 275
Width: 737
VWidth: 2694
Flags: HMW
LayerCount: 2
Fore
SplineSet
160 475 m 0
 160 589 266 679 392 679 c 0
 500 679 577 594 577 484 c 0
 577 365 490 260 380 260 c 0
 260 260 160 361 160 475 c 0
EndSplineSet
PairPos2: "'kern' Horizontal Kerning in Arabic lookup 3 per glyph data 0" uni0667 dx=-89 dy=0 dh=-89 dv=0 dx=0 dy=0 dh=0 dv=0
PairPos2: "'kern' Horizontal Kerning in Arabic lookup 3 per glyph data 0" uni0666 dx=-89 dy=0 dh=-89 dv=0 dx=0 dy=0 dh=0 dv=0
PairPos2: "'kern' Horizontal Kerning in Arabic lookup 3 per glyph data 0" uni0662 dx=-111 dy=0 dh=-111 dv=0 dx=0 dy=0 dh=0 dv=0
Colour: ff
EndChar

StartChar: uni0661
Encoding: 1633 1633 276
Width: 540
VWidth: 1823
Flags: HMW
LayerCount: 2
Fore
SplineSet
160 1361 m 17
 305 938 380 484 380 0 c 1025
EndSplineSet
Colour: ffff
EndChar

StartChar: uni0662
Encoding: 1634 1634 277
Width: 1007
VWidth: 1823
Flags: HMW
LayerCount: 2
Fore
SplineSet
843 1316 m 0
 847 1286 847 1255 847 1225 c 0
 847 1026 788 787 584 787 c 0
 377 787 232 1140 160 1316 c 1
 304 995 463 532 463 98 c 0
 463 66 463 32 461 0 c 1024
EndSplineSet
Colour: ffff
EndChar

StartChar: uni0663
Encoding: 1635 1635 278
Width: 1280
VWidth: 2315
Flags: HMW
LayerCount: 2
Fore
SplineSet
1091 1316 m 0
 1117 1216 1120 1123 1120 1087 c 0
 1120 941 1079 772 933 768 c 1
 779 768 749 1025 729 1202 c 0
 724 1247 719 1287 713 1316 c 1
 721 1272 726 1228 726 1183 c 0
 726 993 693 768 504 768 c 0
 375 768 324 874 246 1083 c 0
 221 1150 199 1202 160 1290 c 1
 316 930 463 520 463 110 c 0
 463 77 462 33 461 0 c 1024
EndSplineSet
Colour: ffff
EndChar

StartChar: uni0664
Encoding: 1636 1636 279
Width: 1077
VWidth: 2315
Flags: HMW
LayerCount: 2
Fore
SplineSet
650 1382 m 0
 463 1382 184 1299 184 1105 c 0
 184 1016 264 952 322 918 c 0
 378.970734608 884.603362471 493 813 493 752 c 0
 493 686 372 583 315 540 c 0
 246 487 160 414 160 305 c 0
 160 107 409 45 602 45 c 0
 710 45 817 67 917 110 c 1024
EndSplineSet
Colour: ffff
EndChar

StartChar: uni0665
Encoding: 1637 1637 280
Width: 1150
VWidth: 2370
Flags: HMW
LayerCount: 2
Fore
SplineSet
312 1316 m 0
 575 1129 990 732 990 382 c 0
 990 166 817 45 583 45 c 0
 333 45 160 182 160 398 c 0
 160 677 456 977 623 1113 c 1024
EndSplineSet
PairPos2: "'kern' Horizontal Kerning in Arabic lookup 3 per glyph data 0" uni0667 dx=-89 dy=0 dh=-89 dv=0 dx=0 dy=0 dh=0 dv=0
PairPos2: "'kern' Horizontal Kerning in Arabic lookup 3 per glyph data 0" uni0666 dx=-45 dy=0 dh=-45 dv=0 dx=0 dy=0 dh=0 dv=0
Colour: ffff
EndChar

StartChar: uni0666
Encoding: 1638 1638 281
Width: 1116
VWidth: 2315
Flags: HMW
LayerCount: 2
Fore
SplineSet
160 1296 m 0
 244 1310 328 1316 412 1316 c 0
 653 1316 802 1247 802 996 c 0
 802 556 824 284 956 0 c 1025
EndSplineSet
PairPos2: "'kern' Horizontal Kerning in Arabic lookup 3 per glyph data 0" uni0660 dx=-89 dy=0 dh=-89 dv=0 dx=0 dy=0 dh=0 dv=0
PairPos2: "'kern' Horizontal Kerning in Arabic lookup 3 per glyph data 0" uni066B dx=-134 dy=0 dh=-134 dv=0 dx=0 dy=0 dh=0 dv=0
PairPos2: "'kern' Horizontal Kerning in Arabic lookup 3 per glyph data 0" uni0668 dx=-89 dy=0 dh=-89 dv=0 dx=0 dy=0 dh=0 dv=0
Colour: ffff
EndChar

StartChar: uni0667
Encoding: 1639 1639 282
Width: 1188
VWidth: 2370
Flags: HMW
LayerCount: 2
Fore
SplineSet
160 1316 m 0
 375 936 559 516 612 0 c 1
 665 516 813 967 1028 1347 c 1024
EndSplineSet
PairPos2: "'kern' Horizontal Kerning in Arabic lookup 3 per glyph data 0" uni0660 dx=-89 dy=0 dh=-89 dv=0 dx=0 dy=0 dh=0 dv=0
PairPos2: "'kern' Horizontal Kerning in Arabic lookup 3 per glyph data 0" uni0665 dx=-89 dy=0 dh=-89 dv=0 dx=0 dy=0 dh=0 dv=0
PairPos2: "'kern' Horizontal Kerning in Arabic lookup 3 per glyph data 0" uni0668 dx=-134 dy=0 dh=-134 dv=0 dx=0 dy=0 dh=0 dv=0
PairPos2: "'kern' Horizontal Kerning in Arabic lookup 3 per glyph data 0" uni066B dx=-1002 dy=0 dh=-111 dv=0 dx=0 dy=0 dh=0 dv=0
Colour: ffff
EndChar

StartChar: uni0668
Encoding: 1640 1640 283
Width: 1198
VWidth: 1823
Flags: HMW
LayerCount: 2
Fore
SplineSet
1038 11 m 0
 823 391 646 845 593 1361 c 1
 540 845 375 405 160 25 c 1024
EndSplineSet
PairPos2: "'kern' Horizontal Kerning in Arabic lookup 3 per glyph data 0" uni0663 dx=-89 dy=0 dh=-89 dv=0 dx=0 dy=0 dh=0 dv=0
PairPos2: "'kern' Horizontal Kerning in Arabic lookup 3 per glyph data 0" uni0662 dx=-89 dy=0 dh=-89 dv=0 dx=0 dy=0 dh=0 dv=0
PairPos2: "'kern' Horizontal Kerning in Arabic lookup 3 per glyph data 0" uni0667 dx=-134 dy=0 dh=-134 dv=0 dx=0 dy=0 dh=0 dv=0
Colour: ffff
EndChar

StartChar: uni0669
Encoding: 1641 1641 284
Width: 1045
VWidth: 2315
Flags: HMW
LayerCount: 2
Fore
SplineSet
778 751 m 0
 706 731 571 710 495 710 c 0
 315 710 160 774 160 956 c 0
 160 1130 277 1316 450 1316 c 0
 702 1316 717.805486941 1021.99250185 727 786 c 0
 736 555 802 215 885 0 c 1025
EndSplineSet
PairPos2: "'kern' Horizontal Kerning in Arabic lookup 3 per glyph data 0" uni066B dx=-67 dy=0 dh=-67 dv=0 dx=0 dy=0 dh=0 dv=0
PairPos2: "'kern' Horizontal Kerning in Arabic lookup 3 per glyph data 0" uni0668 dx=-134 dy=0 dh=-134 dv=0 dx=0 dy=0 dh=0 dv=0
PairPos2: "'kern' Horizontal Kerning in Arabic lookup 3 per glyph data 0" uni0665 dx=-45 dy=0 dh=-45 dv=0 dx=0 dy=0 dh=0 dv=0
Colour: ffff
EndChar

StartChar: uni06F4
Encoding: 1780 1780 290
Width: 1026
VWidth: 2370
Flags: HMW
LayerCount: 2
Fore
SplineSet
860 1369 m 0
 813 1394 762 1404 709 1404 c 0
 525 1404 381 1271 381 1088 c 0
 381 964 451 869 536 822 c 1024
866 741 m 0
 790 741 714 753 642 778 c 0
 369 870 300 970 160 1294 c 1
 302 965 383 577 383 126 c 0
 383 98 382 28 381 0 c 1024
EndSplineSet
PairPos2: "'kern' Horizontal Kerning in Arabic lookup 3 per glyph data 1" uni06F0 dx=-22 dy=0 dh=-22 dv=0 dx=0 dy=0 dh=0 dv=0
PairPos2: "'kern' Horizontal Kerning in Arabic lookup 3 per glyph data 1" uni06F8 dx=-111 dy=0 dh=-111 dv=0 dx=0 dy=0 dh=0 dv=0
Colour: ffff
EndChar

StartChar: uni06F5
Encoding: 1781 1781 291
Width: 1155
VWidth: 2370
Flags: HMW
LayerCount: 2
Fore
SplineSet
352 1338 m 0
 583 1114 995 699 995 342 c 0
 995 138 894 1 772 1 c 0
 707 1 632 51 572 125 c 1
 519 43 447 3 378 3 c 0
 265 3 160 110 160 317 c 0
 160 645 453 951 660 1105 c 1024
EndSplineSet
PairPos2: "'kern' Horizontal Kerning in Arabic lookup 3 per glyph data 1" uni06F2 dx=-22 dy=0 dh=-22 dv=0 dx=0 dy=0 dh=0 dv=0
PairPos2: "'kern' Horizontal Kerning in Arabic lookup 3 per glyph data 1" uni06F3 dx=-22 dy=0 dh=-22 dv=0 dx=0 dy=0 dh=0 dv=0
PairPos2: "'kern' Horizontal Kerning in Arabic lookup 3 per glyph data 1" uni06F7 dx=-89 dy=0 dh=-89 dv=0 dx=0 dy=0 dh=0 dv=0
PairPos2: "'kern' Horizontal Kerning in Arabic lookup 3 per glyph data 1" uni06F9 dx=-67 dy=0 dh=-67 dv=0 dx=0 dy=0 dh=0 dv=0
Colour: ffff
EndChar

StartChar: uni06F6
Encoding: 1782 1782 292
Width: 992
VWidth: 2370
Flags: HMW
LayerCount: 2
Fore
SplineSet
682 1288 m 16
 635 1308 588 1317 543 1317 c 0
 352 1317 193 1153 193 950 c 0
 193 764 357 668 542 668 c 0
 651 668 744 696 832 733 c 1
 530 583 269 333 160 0 c 1025
EndSplineSet
Colour: ffff
EndChar

StartChar: uni066B
Encoding: 1643 1643 296
Width: 449
VWidth: 1823
Flags: HMW
LayerCount: 2
Fore
SplineSet
354 504 m 1
 -28 -383 l 1025
EndSplineSet
PairPos2: "'kern' Horizontal Kerning in Arabic lookup 3 per glyph data 1" uni06F7 dx=-89 dy=0 dh=-89 dv=0 dx=0 dy=0 dh=0 dv=0
PairPos2: "'kern' Horizontal Kerning in Arabic lookup 3 per glyph data 1" uni06F0 dx=-45 dy=0 dh=-45 dv=0 dx=0 dy=0 dh=0 dv=0
PairPos2: "'kern' Horizontal Kerning in Arabic lookup 3 per glyph data 1" uni06F3 dx=-67 dy=0 dh=-67 dv=0 dx=0 dy=0 dh=0 dv=0
PairPos2: "'kern' Horizontal Kerning in Arabic lookup 3 per glyph data 1" uni06F2 dx=-89 dy=0 dh=-89 dv=0 dx=0 dy=0 dh=0 dv=0
PairPos2: "'kern' Horizontal Kerning in Arabic lookup 3 per glyph data 0" uni0663 dx=-134 dy=0 dh=-134 dv=0 dx=0 dy=0 dh=0 dv=0
PairPos2: "'kern' Horizontal Kerning in Arabic lookup 3 per glyph data 0" uni0662 dx=-89 dy=0 dh=-89 dv=0 dx=0 dy=0 dh=0 dv=0
PairPos2: "'kern' Horizontal Kerning in Arabic lookup 3 per glyph data 1" uni066B dx=-45 dy=0 dh=-45 dv=0 dx=0 dy=0 dh=0 dv=0
PairPos2: "'kern' Horizontal Kerning in Arabic lookup 3 per glyph data 0" uni0667 dx=-89 dy=0 dh=-89 dv=0 dx=0 dy=0 dh=0 dv=0
Colour: ffff
EndChar

StartChar: uni060C
Encoding: 1548 1548 298
Width: 633
VWidth: 1839
Flags: HMW
LayerCount: 2
Fore
SplineSet
233 310 m 0
 249 343 292 357 321 357 c 0
 401 357 452 276 452 196 c 0
 452 119 413 45 333 45 c 0
 232 45 167 115 167 241 c 0
 167 388 228 535 324 635 c 1024
EndSplineSet
Colour: ffff00
EndChar

StartChar: quoteleft
Encoding: 8216 8216 300
Width: 632
VWidth: 1424
Flags: HMW
LayerCount: 2
Fore
SplineSet
207 1076 m 0
 347 1087 454 1156 454 1263 c 0
 454 1349 414 1414 333 1414 c 0
 216 1414 177 1333 177 1229 c 0
 177 1058 283 822 328 772 c 1024
EndSplineSet
Colour: ffff00
EndChar

StartChar: uni061F
Encoding: 1567 1567 311
Width: 900
VWidth: 0
Flags: HMW
LayerCount: 2
Fore
SplineSet
759 940 m 17
 764 968 767 994 767 1020 c 0
 767 1205 626 1316 473 1316 c 0
 307 1316 134 1196 134 955 c 0
 134 810 223 725 315 648 c 0
 406 571 487 492 487 366 c 1025
431 89 m 0
 431 114 450 134 475 134 c 0
 500 134 520 114 520 89 c 0
 520 64 500 45 475 45 c 0
 450 45 431 64 431 89 c 0
EndSplineSet
Colour: ffff
EndChar

StartChar: section
Encoding: 167 167 313
Width: 920
VWidth: 2426
Flags: HMW
LayerCount: 2
Fore
SplineSet
469 872 m 17
 319 872 168 832 157 696 c 1
 157 555 306 510 443 496 c 1
 579 482 766 371 766 209 c 0
 766 65 597 45 457 45 c 0
 327 45 227 92 150 153 c 1025
760 1129 m 1
 732 1257 604 1316 472 1316 c 0
 322 1316 170 1240 159 1104 c 1
 159 922 315 897 469 872 c 0
 610 849 765 769 765 655 c 0
 765 511 583 496 443 496 c 1025
EndSplineSet
Colour: ffff
EndChar

StartChar: uni00B2
Encoding: 178 178 314
Width: 625
VWidth: 2426
Flags: HMW
LayerCount: 2
Fore
SplineSet
134 1298 m 0
 134 1393 198 1477 297 1477 c 0
 384 1477 442 1411 442 1327 c 0
 442 1213 379 1151 292 1067 c 2
 141 921 l 1
 492 940 l 1024
EndSplineSet
Colour: ffff00
EndChar

StartChar: uni00B3
Encoding: 179 179 315
Width: 573
VWidth: 2426
Flags: HMW
LayerCount: 2
Fore
SplineSet
176 1348 m 0
 189 1407 239 1459 310 1459 c 0
 380 1459 435 1397 435 1326 c 0
 435 1233 316 1196 225 1177 c 1
 250 1183 280 1189 310 1189 c 0
 386 1189 448 1150 451 1076 c 1
 451 979 371 920 277 920 c 0
 231 920 183 935 147 964 c 1024
EndSplineSet
Colour: ffff00
EndChar

StartChar: eth
Encoding: 240 240 316
Width: 1089
VWidth: 2426
Flags: HMW
LayerCount: 2
Fore
SplineSet
228 1000 m 0
 330 1113 700 1360 842 1406 c 1024
257 1420 m 0
 791 1215 939 777 939 525 c 0
 939 195 748 45 523 45 c 0
 316 45 150 204 150 427 c 0
 150 661 325 854 565 854 c 1024
EndSplineSet
Colour: ffff
EndChar

StartChar: uni06DD
Encoding: 1757 1757 327
Width: 2048
VWidth: 0
LayerCount: 2
Back
SplineSet
236 -240 m 0
 1971 -240 l 1032
933 -410 m 0
 933 -316 1009 -240 1103 -240 c 0
 1197 -240 1273 -316 1273 -410 c 0
 1273 -504 1197 -580 1103 -580 c 0
 1009 -580 933 -504 933 -410 c 0
1103 -580 m 1024
427 -580 m 0
 1779 -580 l 1024
933 -750 m 0
 933 -656 1009 -580 1103 -580 c 0
 1197 -580 1273 -656 1273 -750 c 0
 1273 -844 1197 -920 1103 -920 c 0
 1009 -920 933 -844 933 -750 c 0
156 213 m 0
 156 838 580 1346 1103 1346 c 0
 1626 1346 2050 838 2050 213 c 0
 2050 -412 1626 -920 1103 -920 c 0
 580 -920 156 -412 156 213 c 0
EndSplineSet
EndChar

StartChar: uni06DE
Encoding: 1758 1758 328
Width: 2048
VWidth: 0
LayerCount: 2
Back
SplineSet
888 716 m 4
 888 860 1004 976 1148 976 c 4
 1292 976 1408 860 1408 716 c 4
 1408 572 1292 456 1148 456 c 4
 1004 456 888 572 888 716 c 4
1136 1694 m 5
 2134 696 l 5
 1144 -294 l 5
 146 704 l 5
 1136 1694 l 5
434 1400 m 5
 1846 1400 l 5
 1846 0 l 5
 434 0 l 5
 434 1400 l 5
EndSplineSet
EndChar

StartChar: uniE008
Encoding: 57352 57352 329
Width: 214
VWidth: 1437
Flags: HMW
LayerCount: 2
Fore
SplineSet
0 45 m 0
 214 45 l 1025
EndSplineSet
Colour: ffff
EndChar

StartChar: uniE009
Encoding: 57353 57353 330
Width: 107
VWidth: 1437
Flags: HMW
LayerCount: 2
Fore
SplineSet
0 45 m 0
 107 45 l 1025
EndSplineSet
Colour: ffff
EndChar

StartChar: underscore
Encoding: 95 95 331
Width: 667
VWidth: 1823
Flags: HMW
LayerCount: 2
Fore
SplineSet
668 45 m 25
 0 45 l 1049
EndSplineSet
Colour: ffff
EndChar

StartChar: seven
Encoding: 55 55 332
Width: 1080
VWidth: 2426
Flags: HMW
LayerCount: 2
Fore
SplineSet
160 1265 m 1
 792 1316 l 2
 809 1319 826 1320 843 1320 c 0
 885 1320 920 1309 920 1265 c 0
 920 1246 915 1224 905 1204 c 0
 722 838 616 454 542 0 c 1025
EndSplineSet
Colour: ffff
EndChar

StartChar: nine
Encoding: 57 57 333
Width: 1112
VWidth: 2426
Flags: HMW
LayerCount: 2
Fore
SplineSet
645 453 m 0
 618 447 579 443 547 443 c 0
 276 443 160 641 160 848 c 0
 160 1076 317 1316 552 1316 c 0
 751 1316 952 1169 952 872 c 0
 952 497 706 0 381 0 c 1024
EndSplineSet
Colour: ffff
EndChar

StartChar: uniFD3E
Encoding: 64830 64830 334
Width: 866
VWidth: 0
Flags: HMW
LayerCount: 2
Fore
SplineSet
402 685 m 0
 432 790 517 863 629 863 c 0
 681 863 716 827 716 774 c 0
 716 717 625 699 518 686 c 0
 369 667 190 632 190 476 c 0
 190 448 209 430 237 430 c 0
 347 430 405 519 405 637 c 0
 405 728 375 879 234 879 c 0
 195 879 150 865 150 819 c 0
 150 696 322 671 424 659 c 0
 507 649 634 606 634 524 c 0
 634 471 580 467 554 467 c 0
 447 467 421 564 399 667 c 1024
568 1418 m 1
 454 1186 398 933 398 681 c 0
 398 448 454 176 568 -56 c 1025
EndSplineSet
Colour: ffff
EndChar

StartChar: uniFD3F
Encoding: 64831 64831 335
Width: 861
VWidth: 0
Flags: HMW
LayerCount: 2
Fore
SplineSet
456 685 m 0
 426 790 359 874 247 874 c 0
 195 874 150 834 150 781 c 0
 150 724 233 699 340 686 c 0
 489 667 667 632 667 493 c 0
 667 448 621 431 593 431 c 0
 497 431 447 528 447 630 c 0
 447 743 508 863 630 863 c 0
 669 863 711 838 711 792 c 0
 711 685 579 673 477 663 c 0
 379 654 230 623 230 526 c 0
 230 473 279 441 305 441 c 0
 412 441 458 547 458 667 c 1024
290 1418 m 1
 404 1186 460 933 460 681 c 0
 460 429 404 176 290 -56 c 1025
EndSplineSet
Colour: ffff
EndChar

StartChar: dollar
Encoding: 36 36 336
Width: 1182
VWidth: 1823
Flags: HMW
LayerCount: 2
Fore
SplineSet
575 1619 m 1
 575 -142 l 1025
EndSplineSet
Refer: 31 83 N 1 0 0 1 0 0 2
Colour: ffff
EndChar

StartChar: ampersand
Encoding: 38 38 337
Width: 1194
VWidth: 2426
Flags: HMW
LayerCount: 2
Fore
SplineSet
1034 45 m 0
 718 228 257 657 257 1033 c 0
 257 1258 415 1361 569 1361 c 0
 717 1361 863 1266 863 1095 c 0
 863 877 684 800 508 725 c 0
 330 650 160 575 160 364 c 0
 160 139 346 45 549 45 c 0
 742 45 951 130 1025 270 c 1024
EndSplineSet
Colour: ffff
EndChar

StartChar: question
Encoding: 63 63 338
Width: 954
VWidth: 0
Flags: HMW
LayerCount: 2
Fore
SplineSet
495 89 m 0
 495 64 476 45 451 45 c 0
 426 45 406 64 406 89 c 0
 406 114 426 134 451 134 c 0
 476 134 495 114 495 89 c 0
168 939 m 17
 163 966 160 992 160 1017 c 0
 160 1204 308 1316 465 1316 c 0
 627 1316 794 1201 794 954 c 0
 794 809 704 724 612 647 c 0
 523 571 439 492 439 366 c 1025
EndSplineSet
Colour: ffff
EndChar

StartChar: at
Encoding: 64 64 339
Width: 2047
VWidth: 2426
Flags: HMW
LayerCount: 2
Fore
SplineSet
1627 -202 m 0
 1471 -339 1268 -421 1045 -421 c 0
 556 -421 160 -86 160 403 c 0
 160 892 587 1351 1076 1351 c 0
 1515 1351 1887 1008 1887 559 c 0
 1887 347 1775 47 1564 47 c 0
 1431 47 1348 203 1348 362 c 0
 1348 391 1350 424 1354 454 c 1026
1406 811 m 1
 1354 454 l 2
 1326 263 1211 45 938 45 c 0
 727 45 585 197 585 402 c 0
 585 735 813 924 1069 924 c 0
 1182 924 1299 888 1406 811 c 1
EndSplineSet
Colour: ffff
EndChar

StartChar: b
Encoding: 98 98 340
Width: 1123
VWidth: 1823
Flags: HMW
LayerCount: 2
Fore
SplineSet
202 1361 m 0
 160 45 l 1
 172 409 199 971 611 971 c 0
 851 971 963 749 963 495 c 0
 963 233 755 45 475 45 c 0
 428 45 380 51 334 63 c 1024
EndSplineSet
Colour: ffff
EndChar

StartChar: d
Encoding: 100 100 341
Width: 1177
VWidth: 2426
Flags: HMW
LayerCount: 2
Fore
SplineSet
835 841 m 0
 751 931 657 969 567 969 c 0
 311 969 160 720 160 465 c 0
 160 204 297 45 534 45 c 0
 829 45 943 333 950 610 c 2
 970 1361 l 1
 951 511 l 0
 951 214 956 119 1017 45 c 1024
EndSplineSet
Colour: ffff
EndChar

StartChar: h
Encoding: 104 104 342
Width: 1003
VWidth: 2426
Flags: HMW
LayerCount: 2
Fore
SplineSet
250 1371 m 1
 160 0 l 1
 185 364 308 970 615 970 c 0
 781 970 843 802 843 609 c 0
 843 529 838 429 831 335 c 0
 825 253 821 174 821 119 c 0
 821 68 824 28 836 0 c 1024
EndSplineSet
Colour: ffff
EndChar

StartChar: j
Encoding: 106 106 344
Width: 630
VWidth: 2426
Flags: HMW
LayerCount: 2
Fore
SplineSet
411 971 m 1
 414 860 414 692 414 581 c 0
 414 137 409 -414 208 -414 c 0
 193 -414 176 -413 160 -410 c 1025
EndSplineSet
Refer: 47 46 N 1 0 0 1 186 1286 2
Colour: ffff
EndChar

StartChar: k
Encoding: 107 107 345
Width: 979
VWidth: 2426
Flags: HMW
LayerCount: 2
Fore
SplineSet
819 0 m 0
 598 130 357 346 190 537 c 1
 397 642 597 804 734 971 c 1024
220 1361 m 1
 160 4 l 1025
EndSplineSet
Colour: ffff
EndChar

StartChar: l
Encoding: 108 108 346
Width: 379
VWidth: 2426
Flags: HMW
LayerCount: 2
Fore
SplineSet
199 1350 m 17
 183 1007 180 394 180 0 c 1025
EndSplineSet
Colour: ffff
EndChar

StartChar: m
Encoding: 109 109 347
Width: 1482
VWidth: 2426
Flags: HMW
LayerCount: 2
Fore
SplineSet
209 988 m 0
 215 941 218 885 218 824 c 0
 218 723 212 612 202 525 c 2
 160 8 l 1
 193 433 l 2
 217 679 246 971 500 971 c 0
 748 971 747 768 747 549 c 0
 747 381 735 168 721 0 c 1
 749 318 733 971 1072 971 c 0
 1248 971 1317 827 1317 651 c 0
 1317 586 1315 502 1311 416 c 0
 1307 328 1303 239 1302 169 c 0
 1301 108 1308 52 1322 0 c 1024
EndSplineSet
Colour: ffff
EndChar

StartChar: n
Encoding: 110 110 348
Width: 1003
VWidth: 2426
Flags: HMW
LayerCount: 2
Fore
SplineSet
218 966 m 1
 160 0 l 1
 185 364 334 970 641 970 c 0
 807 970 843 802 843 609 c 0
 843 530 837 430 831 337 c 0
 826 254 821 175 821 119 c 0
 821 68 824 28 836 0 c 1024
EndSplineSet
Colour: ffff
EndChar

StartChar: p
Encoding: 112 112 349
Width: 1167
VWidth: 2426
Flags: HMW
LayerCount: 2
Fore
SplineSet
416 45 m 0
 861 45 1007 301 1007 538 c 0
 1007 820 853 971 678 971 c 0
 457 971 226 747 208 291 c 1024
173 -433 m 1
 205 253 l 1
 213 381 220 498 220 603 c 0
 220 746 204 882 160 971 c 1024
EndSplineSet
Colour: ffff
EndChar

StartChar: q
Encoding: 113 113 350
Width: 1123
VWidth: 2426
Flags: HMW
LayerCount: 2
Fore
SplineSet
780 864 m 0
 726 932 642 980 532 980 c 0
 280 980 160 732 160 484 c 0
 160 229 253 44 490 44 c 0
 934 45 959 802 963 977 c 1
 941 680 929 384 929 87 c 0
 929 -83 933 -254 940 -425 c 1024
EndSplineSet
Colour: ffff
EndChar

StartChar: r
Encoding: 114 114 351
Width: 865
VWidth: 2426
Flags: HMW
LayerCount: 2
Fore
SplineSet
705 971 m 0
 254 884 213 483 174 0 c 1
 189 143 201 343 201 532 c 0
 201 707 189 873 160 971 c 1024
EndSplineSet
Colour: ffff
EndChar

StartChar: u
Encoding: 117 117 352
Width: 1003
VWidth: 2426
Flags: HMW
LayerCount: 2
Fore
SplineSet
208 971 m 0
 183 857 160 741 160 584 c 0
 160 332 170 45 450 45 c 0
 786 45 811 624 823 971 c 1
 817 862 814 751 814 639 c 0
 814 438 824 237 843 48 c 1024
EndSplineSet
Colour: ffff
EndChar

StartChar: asciitilde
Encoding: 126 126 353
Width: 870
VWidth: 2426
Flags: HMW
LayerCount: 2
Fore
SplineSet
115 1152 m 0
 129 1237 197 1291 279 1291 c 0
 349 1291 401 1261 450 1225 c 0
 495 1192 542 1164 602 1164 c 0
 663 1164 720 1203 762 1318 c 1024
EndSplineSet
Colour: ffff
EndChar

StartChar: cent
Encoding: 162 162 356
Width: 1031
VWidth: 1823
Flags: HMW
LayerCount: 2
Fore
SplineSet
547 -365 m 1
 547 45 l 1025
547 971 m 1
 547 1316 l 1025
EndSplineSet
Refer: 1 99 N 1 0 0 1 0 0 2
Colour: ffff
EndChar

StartChar: sterling
Encoding: 163 163 357
Width: 1360
VWidth: 2426
Flags: HMW
LayerCount: 2
Fore
SplineSet
293 678 m 0
 364 660 443 653 522 653 c 0
 636 653 750 667 843 685 c 1024
670 1166 m 0
 670 1260 630 1316 565 1316 c 0
 460 1316 443 1153 443 939 c 0
 443 841 443 788 443 687 c 0
 443 372 414 67 169 67 c 0
 123 67 94 88 94 110 c 0
 94 128 116 144 163 144 c 0
 224 144 306 122 392 94 c 0
 481 66 626 45 772 45 c 0
 993 45 1213 99 1248 285 c 1024
EndSplineSet
Colour: ffff
EndChar

StartChar: currency
Encoding: 164 164 358
Width: 1109
VWidth: 1823
Flags: HMW
LayerCount: 2
Fore
SplineSet
959 45 m 1
 829 195 l 1025
270 834 m 1
 151 970 l 1025
959 970 m 1
 848 842 l 1025
258 168 m 1
 151 45 l 1025
EndSplineSet
Refer: 5 111 N 1 0 0 1 0 0 2
Colour: ffff
EndChar

StartChar: brokenbar
Encoding: 166 166 360
Width: 414
VWidth: 2426
Flags: HMW
LayerCount: 2
Fore
SplineSet
211 1361 m 0
 211 1216 210 1058 207 895 c 1024
226 497 m 0
 222 317 216 146 208 0 c 1024
EndSplineSet
Colour: ffff
EndChar

StartChar: dieresis
Encoding: 168 168 361
Width: 667
VWidth: 1823
Flags: HMW
LayerCount: 2
Fore
SplineSet
512 1214 m 0
 512 1189 492 1169 467 1169 c 0
 442 1169 423 1189 423 1214 c 0
 423 1239 442 1258 467 1258 c 0
 492 1258 512 1239 512 1214 c 0
245 1214 m 0
 245 1189 225 1169 200 1169 c 0
 175 1169 156 1189 156 1214 c 0
 156 1239 175 1258 200 1258 c 0
 225 1258 245 1239 245 1214 c 0
EndSplineSet
Colour: ffff
EndChar

StartChar: copyright
Encoding: 169 169 362
Width: 1693
VWidth: 1823
Flags: HMW
LayerCount: 2
Fore
SplineSet
1044 1005 m 0
 996 1047 938 1072 868 1072 c 0
 666 1072 517 881 517 687 c 0
 517 519 612 390 809 390 c 0
 910 390 987 419 1056 461 c 1024
160 616 m 0
 160 1072 494 1361 831 1361 c 0
 1250 1361 1533 1072 1533 760 c 0
 1533 315 1225 45 752 45 c 0
 468 45 160 315 160 616 c 0
EndSplineSet
Colour: ffff
EndChar

StartChar: ordfeminine
Encoding: 170 170 363
Width: 778
VWidth: 2426
Flags: HMW
LayerCount: 2
Fore
SplineSet
327 896 m 0
 201 896 113 1006 113 1156 c 0
 113 1322 220 1459 370 1459 c 0
 486 1459 571 1397 571 1247 c 0
 571 1097 507 896 327 896 c 0
630 1459 m 0
 602 1401 565 1257 565 1134 c 0
 565 1024 595 896 689 896 c 1024
EndSplineSet
Colour: ffff00
EndChar

StartChar: logicalnot
Encoding: 172 172 364
Width: 867
VWidth: 1823
Flags: HMW
LayerCount: 2
Fore
SplineSet
89 661 m 1
 734 661 l 17
 734 388 l 1025
EndSplineSet
Colour: ffff
EndChar

StartChar: registered
Encoding: 174 174 366
Width: 1667
VWidth: 1823
Flags: HMW
LayerCount: 2
Fore
SplineSet
160 685 m 0
 160 1063 503 1316 825 1316 c 0
 1203 1316 1507 1124 1507 727 c 0
 1507 364 1198 45 820 45 c 0
 442 45 160 250 160 685 c 0
563 922 m 0
 616 993 703 1035 791 1035 c 0
 924 1035 1058 943 1058 809 c 0
 1058 686 957 600 803 600 c 1
 882 503 994 424 1104 363 c 1024
685 897 m 0
 677 718 662 528 644 356 c 1024
EndSplineSet
Colour: ffff
EndChar

StartChar: degree
Encoding: 176 176 368
Width: 648
VWidth: 2426
Flags: HMW
LayerCount: 2
Fore
SplineSet
559 1398 m 0
 559 1275 444 1169 309 1169 c 0
 193 1169 89 1273 89 1391 c 0
 89 1520 205 1639 323 1639 c 0
 453 1639 559 1521 559 1398 c 0
EndSplineSet
Colour: ffff00
EndChar

StartChar: acute
Encoding: 180 180 369
Width: 518
VWidth: 2426
Flags: HMW
LayerCount: 2
Fore
SplineSet
357 1481 m 1
 282 1387 213 1297 155 1169 c 1025
EndSplineSet
Colour: ffff
EndChar

StartChar: mu
Encoding: 181 181 370
Width: 1019
VWidth: 1823
Flags: HMW
LayerCount: 2
Fore
SplineSet
208 -447 m 0
 184 -207 160 91 160 367 c 0
 160 598 193 864 236 1015 c 1
 205 894 165 692 165 535 c 0
 165 283 191 45 471 45 c 0
 842 45 844 664 845 1015 c 1
 837 885 837 710 837 587 c 0
 837 405 841 224 859 48 c 1024
EndSplineSet
Colour: ffff
EndChar

StartChar: paragraph
Encoding: 182 182 371
Width: 1319
VWidth: 2426
Flags: HMW
LayerCount: 2
Fore
SplineSet
953 1030 m 1
 953 -442 l 1025
1159 1117 m 0
 1056 1235 908 1316 715 1316 c 0
 417 1316 160 1109 160 811 c 0
 160 510 455 308 750 308 c 0
 828 308 906 322 980 350 c 1024
690 1090 m 1
 690 -382 l 1025
EndSplineSet
Colour: ffff
EndChar

StartChar: uni00B9
Encoding: 185 185 373
Width: 438
VWidth: 2426
Flags: HMW
LayerCount: 2
Fore
SplineSet
300 833 m 1
 340 1459 l 1
 281 1406 212 1360 134 1329 c 1024
EndSplineSet
Colour: ffff00
EndChar

StartChar: onequarter
Encoding: 188 188 375
Width: 1893
VWidth: 1839
Flags: HMW
LayerCount: 2
Fore
SplineSet
459 45 m 1
 819 427 1264 1014 1486 1414 c 1025
1438 764 m 0
 1320 473 1195 226 1020 -29 c 0
 1012 -40 1002 -58 1002 -78 c 0
 1002 -115 1037 -128 1069 -132 c 0
 1103 -137 1135 -138 1169 -138 c 0
 1368 -138 1573 -106 1760 -61 c 1024
1541 374 m 1
 1457 -365 l 1025
360 520 m 1
 430 1587 l 1
 395 1587 l 1
 318 1515 227 1443 134 1389 c 1025
EndSplineSet
Colour: ffff
EndChar

StartChar: onehalf
Encoding: 189 189 376
Width: 1915
VWidth: 2426
Flags: HMW
LayerCount: 2
Fore
SplineSet
1237 370 m 0
 1237 548 1357 705 1541 705 c 0
 1705 705 1804 582 1804 424 c 0
 1804 209 1671 70 1480 -74 c 2
 1193 -335 l 1
 1311 -323 1428 -318 1548 -318 c 0
 1644 -318 1745 -322 1844 -327 c 1024
459 45 m 1
 820 427 1264 1013 1486 1414 c 1025
360 520 m 1
 430 1587 l 1
 395 1587 l 1
 318 1515 227 1443 134 1389 c 1025
EndSplineSet
Colour: ffff
EndChar

StartChar: threequarters
Encoding: 190 190 377
Width: 2014
VWidth: 2426
Flags: HMW
LayerCount: 2
Fore
SplineSet
188 1351 m 0
 217 1480 340 1559 453 1559 c 0
 564 1559 669 1484 669 1307 c 0
 669 1119 450 1052 281 1014 c 1
 327 1026 382 1040 438 1040 c 0
 579 1040 694 964 699 827 c 1
 699 646 552 538 376 538 c 0
 290 538 201 567 134 622 c 1024
579 45 m 1
 940 427 1384 1013 1606 1414 c 1025
1558 764 m 0
 1440 473 1315 226 1140 -29 c 0
 1133 -40 1122 -58 1122 -78 c 0
 1122 -115 1158 -128 1190 -132 c 0
 1224 -137 1255 -138 1289 -138 c 0
 1488 -138 1694 -106 1881 -61 c 1024
1662 374 m 1
 1577 -365 l 1025
EndSplineSet
Colour: ffff
EndChar

StartChar: Eth
Encoding: 208 208 394
Width: 1341
VWidth: 1823
Flags: HMW
LayerCount: 2
Fore
SplineSet
89 729 m 1
 307 746 489 742 643 729 c 1029
EndSplineSet
Refer: 16 68 N 1 0 0 1 150 0 2
Colour: ffff
EndChar

StartChar: multiply
Encoding: 215 215 401
Width: 756
VWidth: 1823
Flags: HMW
LayerCount: 2
Fore
SplineSet
86 914 m 0
 210 836 356 714 466 604 c 0
 548 522 611 444 638 390 c 1024
118 400 m 0
 216 524 316 635 424 743 c 0
 483 802 545 859 609 918 c 1024
EndSplineSet
Colour: ffff
EndChar

StartChar: germandbls
Encoding: 223 223 408
Width: 1032
VWidth: 2426
Flags: HMW
LayerCount: 2
Fore
SplineSet
134 4 m 0
 159 376 182 716 220 1011 c 0
 252 1258 358 1316 495 1316 c 0
 670 1316 766 1191 766 1060 c 0
 766 925 743 890 658 822 c 0
 597 773 545 700 545 619 c 0
 545 538 600 493 672 456 c 0
 777 403 898 325 898 182 c 0
 898 75 750 14 606 14 c 0
 541 14 477 25 427 53 c 1024
EndSplineSet
Colour: ffff
EndChar

StartChar: ae
Encoding: 230 230 415
Width: 1832
VWidth: 2426
Flags: HMW
LayerCount: 2
Fore
SplineSet
940 474 m 0
 965 604 995 823 1012 955 c 1025
1699 181 m 0
 1603 94 1475 45 1346 45 c 0
 1116 45 946 200 941 419 c 1
 941 702 1145 979 1431 979 c 0
 1552 979 1667 906 1667 784 c 0
 1667 561 1318 460 1127 460 c 0
 1066 460 1005 466 940 474 c 1
 902 276 789 45 503 45 c 0
 282 45 134 204 134 419 c 0
 134 677 316 963 578 963 c 0
 661 963 746 930 807 876 c 1024
EndSplineSet
Colour: ffff
EndChar

StartChar: oslash
Encoding: 248 248 432
Width: 1083
VWidth: 1823
Flags: HMW
LayerCount: 2
Fore
SplineSet
134 45 m 1
 371 412 640 703 922 971 c 1025
EndSplineSet
Refer: 5 111 N 1 0 0 1 0 0 2
Colour: ffff
EndChar

StartChar: thorn
Encoding: 254 254 438
Width: 1069
VWidth: 1823
Flags: HMW
LayerCount: 2
Fore
SplineSet
150 1361 m 25
 116 -365 l 1025
EndSplineSet
Refer: 5 111 N 1 0 0 1 0 0 2
Colour: ffff
EndChar

StartChar: OE
Encoding: 338 338 440
Width: 2275
VWidth: 2426
Flags: HMW
LayerCount: 2
Fore
SplineSet
1242 732 m 0
 1352 716 1514 704 1675 704 c 0
 1780 704 1884 709 1976 721 c 1024
1293 106 m 0
 1467 67 1648 48 1823 48 c 0
 1933 48 2040 56 2141 71 c 1024
987 1151 m 0
 918 1245 812 1316 673 1316 c 0
 355 1316 134 991 134 643 c 0
 134 286 370 45 670 45 c 0
 1154 45 1264 492 1264 1065 c 0
 1264 1152 1261 1242 1257 1329 c 1
 1489 1298 1686 1272 1863 1272 c 0
 1954 1272 2039 1279 2122 1298 c 1024
EndSplineSet
Colour: ffff
EndChar

StartChar: dotlessi
Encoding: 305 305 442
Width: 390
VWidth: 2426
Flags: HMW
LayerCount: 2
Fore
SplineSet
211 971 m 1
 200 736 196 210 196 0 c 1025
EndSplineSet
Colour: ffff
EndChar

StartChar: uniE00A
Encoding: 57354 57354 443
Width: 600
VWidth: 1823
Flags: HMW
AnchorPoint: "Anchor-1" 342 0 basechar 0
AnchorPoint: "Anchor-3" 508 1856 basechar 0
LayerCount: 2
Fore
SplineSet
922 1931 m 0
 868 1835 808 1785 727 1785 c 0
 676 1785 616 1805 546 1845 c 0
 468 1890 402 1909 346 1909 c 0
 238 1909 112 1804 85 1685 c 1024
EndSplineSet
Refer: 80 1575 N 1 0 0 1 200 0 2
Colour: ffff
EndChar

StartChar: uniE00C
Encoding: 57356 57356 445
Width: 1069
VWidth: 1823
Flags: HMW
LayerCount: 2
Fore
SplineSet
541 971 m 0
 810 971 936 756 936 508 c 0
 936 260 810 45 541 45 c 0
 272 45 147 260 147 508 c 0
 147 756 272 971 541 971 c 0
EndSplineSet
Colour: ffff
EndChar

StartChar: uniE00D
Encoding: 57357 57357 446
Width: 950
VWidth: 1823
Flags: HMW
LayerCount: 2
Fore
SplineSet
147 0 m 9
 147 584 l 17
 147 796 252 971 482 971 c 0
 712 971 817 796 817 584 c 9
 817 0 l 1041
EndSplineSet
Colour: ffff
EndChar

StartChar: uniE00E
Encoding: 57358 57358 447
Width: 850
VWidth: 1823
Flags: HMW
LayerCount: 2
Fore
SplineSet
147 0 m 25
 147 598 l 17
 147 810 238 971 432 971 c 0
 626 971 717 810 717 598 c 9
 717 0 l 1049
EndSplineSet
Colour: ffff
EndChar

StartChar: uniE00F
Encoding: 57359 57359 448
Width: 1089
VWidth: 1437
Flags: HW
AnchorPoint: "Anchor-3" 608 1160 basechar 0
AnchorPoint: "Anchor-1" 469 -164 basechar 0
LayerCount: 2
Fore
SplineSet
1089 45 m 1
 861 45 753 232 753 420 c 0
 753 451 757 483 762 513 c 2
 810 811 l 0
 769 551 l 2
 714 203 494 -60 134 -60 c 1024
EndSplineSet
Colour: ffff
EndChar

StartChar: uniE010
Encoding: 57360 57360 451
Width: 435
VWidth: 2296
Flags: HW
AnchorPoint: "Anchor-1" 83 -394 basechar 0
AnchorPoint: "Anchor-3" 205 1361 basechar 0
LayerCount: 2
Fore
SplineSet
-250 -457 m 0
 89 -410 285 -214 285 181 c 0
 285 241.20703125 279.79296875 303.755859375 269.114257812 364 c 1024
343 691 m 0
 361 718 371 751 371 795 c 0
 371 902 285 971 176 971 c 0
 78 971 -10 894 -10 799 c 0
 -10 704 44 653 101 601 c 1024
EndSplineSet
Colour: ffff
EndChar

StartChar: uniE011
Encoding: 57361 57361 452
Width: 593
VWidth: 2234
Flags: HW
AnchorPoint: "Anchor-1" 99 -394 basechar 0
AnchorPoint: "Anchor-3" 209 1361 basechar 0
LayerCount: 2
Fore
SplineSet
593 45 m 16
 307 45 236 202 177 384 c 1
 208 277 217 236 217 137 c 0
 217 -176 78 -376 -250 -457 c 1024
301 691 m 0
 319 718 329 751 329 795 c 0
 329 902 243 971 134 971 c 0
 36 971 -52 894 -52 799 c 0
 -52 704 2 653 59 601 c 1024
EndSplineSet
Colour: ffff
EndChar
